<?xml version="1.0" encoding="UTF-8"?>
<svg id="Layer_1" data-name="Layer 1" xmlns="http://www.w3.org/2000/svg" xmlns:xlink="http://www.w3.org/1999/xlink" viewBox="0 0 1140.61 441.57">
  <defs>
    <style>
      .cls-1 {
        fill: #073344;
      }

      .cls-2 {
        fill: #fff3c8;
      }

      .cls-3 {
        fill: #231f20;
      }
    </style>
  </defs>
  <rect class="cls-3" x="946.64" y="46.16" width="192" height="192" rx="23.72" ry="23.72"/>
  <g>
    <path class="cls-1" d="m688.08,226.1c-.32-.06-.67-.25-1.04-.59-.38-.33-.72-.71-1.02-1.13-.3-.42-.5-.77-.59-1.06,0-.06-.07-.17-.22-.35-.12-.09-.18-.47-.2-1.15-.01-.68.02-1.44.11-2.28.09-.84.19-1.5.3-2,.14-.46.36-1.09.65-1.89.29-.8.54-1.51.74-2.15l1.17-2.52-1.74-.48c-.2-.06-.37-.17-.5-.35s-.2-.32-.2-.43c0-.23.13-.56.39-1,.26-.43.45-.65.56-.65.14.03.41.04.8.04s.77-.01,1.15-.04c.38-.03.61-.06.69-.09.12-.06.23-.14.35-.24.12-.1.2-.25.26-.46.14-.32.27-.56.39-.74.12-.17.27-.43.48-.78.2-.38.37-.69.5-.95s.34-.62.63-1.09c.14-.2.3-.45.48-.74.17-.29.39-.53.65-.74.26-.23.69-.4,1.28-.5.59-.1,1.11.04,1.54.41.23.29.36.56.39.82s-.09.59-.35,1c-.23.49-.5.93-.8,1.32-.3.39-.59.83-.85,1.32-.46.64-.55,1-.26,1.08.29.09,1.1.03,2.43-.17.84-.14,1.45-.06,1.82.26.38.32.59.72.65,1.22.09.69.01,1.11-.22,1.26-.23.15-.9.22-2,.22-.69.12-1.29.18-1.78.19-.49.02-.85.02-1.08.02-.38.03-.62.04-.74.04s-.29.03-.52.09c-.23.06-.4.15-.5.28-.1.13-.21.31-.33.54-.12.12-.29.42-.52.91-.23.49-.52,1.03-.87,1.61-.41,1.22-.75,2.38-1.02,3.49-.28,1.11-.51,2.22-.72,3.32-.09.55-.07.95.06,1.19.13.25.5.4,1.11.46.32.03.78.02,1.39-.02.61-.04,1.11-.12,1.52-.24.32-.14.65-.3,1-.46s.67-.33.95-.5c.26-.15.65-.38,1.17-.69.14-.23.35-.2.63.11.27.3.47.63.59.98,0,.35-.07.76-.22,1.24-.14.48-.68.98-1.61,1.5-1.3.81-2.6,1.3-3.91,1.48s-2.33.19-3.08.04Z"/>
    <path class="cls-1" d="m703.19,233.74c-.32.03-.81-.04-1.48-.2s-1.32-.46-1.95-.89c-.78-.67-1.32-1.21-1.61-1.65-.29-.43-.44-.82-.46-1.15-.02-.33,0-.63.02-.89.14-.64.46-.94.93-.91.48.03.85.16,1.11.39.29.23.6.51.93.85s.67.63,1,.89.62.38.85.35c.58-.06,1.06-.3,1.43-.72.38-.42.75-1.08,1.13-1.98.23-.64.41-1.19.54-1.65.13-.46.27-.97.41-1.52.14-.55.32-1.29.52-2.21.14-.67.25-1.14.33-1.41.07-.28.11-.45.11-.52s-.02-.11-.04-.11c-.4.23-.79.42-1.15.56-.36.15-.76.29-1.19.43-.81.26-1.62.49-2.43.67-.81.19-1.43.21-1.87.06-.43-.17-.78-.46-1.04-.87-.26-.4-.43-.84-.5-1.3-.07-.46-.09-.84-.07-1.13.06-.23.19-.61.39-1.13.2-.52.43-1.07.69-1.65.26-.58.51-1.08.74-1.52.23-.43.42-.67.56-.69.12-.06.22-.18.33-.37s.15-.34.15-.46c.03-.12.15-.3.37-.56.22-.26.86-.77,1.93-1.52,1.07-1.01,2.04-1.77,2.91-2.28s1.66-.79,2.39-.85c.2.03.49.04.87.04.64.17,1.11.33,1.43.48.38.15.78.49,1.22,1.02.43.54.81,1.12,1.13,1.76s.49,1.21.52,1.74c-.03.64-.17,1.27-.43,1.91s-.51.94-.74.91c-.23-.03-.49.05-.76.24-.28.19-.49.54-.63,1.06-.09.12-.19.3-.3.54-.12.25-.25.49-.39.72-.03.14-.1.5-.22,1.06-.12.56-.25,1.19-.41,1.87-.16.68-.3,1.3-.41,1.87-.12.56-.19.93-.22,1.11-.03.12-.1.38-.22.8-.12.42-.25.89-.41,1.41-.16.52-.33,1-.5,1.43-.12.84-.35,1.57-.69,2.19-.35.62-.72,1.18-1.13,1.67-.67.72-1.32,1.24-1.97,1.54-.65.3-1.22.48-1.71.54Zm-.83-15.19c.09.23.33.32.72.26.39-.06.93-.19,1.63-.39.84-.35,1.47-.62,1.89-.83.42-.2.74-.46.98-.78.17-.23.34-.46.5-.69s.31-.43.46-.61c.06-.06.15-.16.28-.3.13-.15.24-.28.33-.39.17-.12.33-.22.46-.33.13-.1.25-.2.37-.28.14-.06.27-.19.39-.41.12-.22.14-.44.09-.67-.03-.2-.16-.48-.39-.85-.23-.36-.55-.64-.96-.85-.38-.23-.82-.07-1.32.48-.51.55-1.31,1.29-2.41,2.21-.64.69-1.2,1.34-1.69,1.93-.49.59-.85,1.1-1.08,1.52-.23.42-.3.74-.22.98Z"/>
  </g>
  <image width="1080" height="1080" transform="translate(944.68 44.19) scale(.18)" xlink:href="../src/assets/logo.png"/>
  <g>
    <path class="cls-2" d="m429.24,243.64c.15-3.27.3-6.58.46-10.04,1.21-.66,2.44-1.34,3.66-2.02,4.48,2.6,9.22,2.42,13.91,1.42,4.49-.96,8.99-1.76,13.56-1.29,2.71.28,5.44.89,8.02,1.76,3.15,1.06,4.89,3.47,5.14,6.86.46,6.16.99,12.32.32,18.51-.09.83-.01,1.67-.01,2.8,8.04-.83,15.68-2.55,23.12-5.14,0-.2,0-.4.01-.59-.84-.33-1.67-.68-2.52-.98-5.47-1.99-10.24-5.01-13.9-9.6-2.27-2.85-2.08-3.68.34-6.29,4.26-4.6,8.39-9.32,12.55-14.01.5-.56.89-1.23,1.29-1.88.07-.11-.03-.33-.07-.73-.55.17-1.07.3-1.57.49-9.05,3.42-18.46,4.41-28.03,3.82-7.18-.44-14.34-1.26-21.8-1.94,1.89-1.71,3.69-3.45,5.64-5,.48-.38,1.47-.24,2.21-.18,5.4.41,10.79,1,16.19,1.27,6.87.34,13.68-.27,20.29-2.32,5.32-1.65,10.25-4.01,14.26-8.02,1.36-1.36,2.83-1.54,4.09-.71,1.32.87,1.76,2.15.86,4.02-1.65,3.42-3.32,6.85-5.33,10.05-3.69,5.91-8.23,11.17-13.13,16.11-.73.74-1.68,1.25-2.82,2.07,1.29,1.28,2.02,2.12,2.86,2.81,4.39,3.6,9.52,5.45,15.09,6.19,1.6.21,3.22.32,4.82.48,1.96.19,2.87.84,3.17,2.27.29,1.42-.2,2.54-1.92,3.42-2.78,1.43-5.6,2.82-8.5,3.98-8.07,3.23-16.54,4.95-25.11,6.19-2.78.4-2.88.52-2.62,3.43.33,3.6.64,7.19.89,10.79.08,1.23.05,2.48-.09,3.7-.48,4.19-2.29,7.52-6.03,9.8-4.48,2.74-9.36,4.11-14.49,4.77-.46.06-.93.11-1.67.2-.25,1.39-.64,2.75-.73,4.13-.26,3.97-.5,7.96-.54,11.94-.04,3.9.16,7.79.27,11.69.1,3.55-1.06,6.72-2.93,9.67-2.44,3.85-5.73,6.84-9.5,9.31-9.42,6.19-19.63,10.78-30.15,14.74-2.84,1.07-5.71,2.05-8.88,3.19-.28,2.2-.51,4.55-.88,6.87-.68,4.31-1.54,8.6-2.1,12.93-.29,2.24-.11,4.55-.09,6.82.02,2.76.19,5.51.13,8.27-.07,3.04-1.33,5.71-3.04,8.17-2.16,3.1-5.03,5.42-8.19,7.41-8.16,5.16-16.99,8.88-26.1,11.96-13.44,4.53-27.23,7.62-41.22,9.86-17.77,2.84-35.65,4.3-53.64,4.49-13.04.13-26.04-.48-39-1.81-21.41-2.19-42.5-5.94-62.89-13.04-8.54-2.98-16.83-6.53-24.44-11.49-1.82-1.19-3.57-2.55-5.14-4.05-3.82-3.64-5.98-8.05-5.69-13.46.04-.66-.02-1.33.04-2,.6-7.36-.12-14.61-1.65-21.81-.47-2.22-.8-4.5-.92-6.77-.09-1.63-.81-2.26-2.26-2.75-9.28-3.13-18.39-6.69-27.04-11.29-3.44-1.83-6.86-3.73-10.07-5.92-2.49-1.7-4.82-3.72-6.91-5.91-3.84-4.01-5.8-8.87-5.61-14.5.11-3.42.29-6.84.42-10.26.21-5.63-.26-11.19-1.44-17.01-1.04-.2-2.11-.45-3.2-.62-4.56-.68-8.82-2.15-12.78-4.57-3.85-2.35-5.71-5.8-5.9-10.13-.13-3.02.12-6.07.3-9.1.15-2.63.62-5.24.4-7.9-4.78-.88-9.37-1.61-13.91-2.59-7.26-1.58-14.31-3.83-20.9-7.33-.75-.4-1.67-.7-2.17-1.32-.6-.75-1.17-1.79-1.16-2.7,0-1.18.91-2.11,2.17-2.32,1.31-.22,2.64-.28,3.96-.39,5.49-.46,10.65-1.94,15.22-5.09,1.46-1.01,2.75-2.26,4.33-3.57-1.07-1.11-1.92-1.97-2.76-2.84-6.16-6.39-11.78-13.19-15.99-21.06-.89-1.67-1.7-3.41-2.38-5.17-.65-1.68-.19-2.98,1.05-3.77,1.25-.79,2.6-.69,3.88.57,6.65,6.55,15,9.14,23.94,10.08,4.52.47,9.1.34,13.66.37,1.14,0,2,.16,2.69,1.15.91,1.3,1.94,2.52,3.2,4.15-12.52,1.42-24.4.9-36.57-3.93.68,1.26.91,1.94,1.35,2.44,4.07,4.65,8.16,9.26,12.26,13.88.38.43.84.78,1.23,1.19,1.68,1.77,1.87,2.77.33,4.74-1.4,1.78-2.97,3.47-4.68,4.96-3.64,3.17-7.98,5.08-12.64,6.46,2.79,2.16,17.93,5.78,23.28,5.58.07-.31.25-.67.22-1.01-.61-6.65-.36-13.29.22-19.93.29-3.28,1.8-5.56,4.74-6.87,5.12-2.29,10.5-2.37,15.94-1.67.51.07,1.03.46,1.45.82,5.49,4.64,11.64,8.19,18.26,10.95.17.07.3.22.69.5-4.1.93-8,1.92-11.94,2.67-4.95.94-9.95,1.54-15.02,1.29-2.09-.1-4.06-.39-4.82-2.73-.59-1.82.54-3.98,2.78-5.45.53-.35,1.1-.65,1.91-1.12-5.05-.26-8.87,3.36-8.69,7.89.08,2.09.12,4.18.22,6.26.16,3.13.48,6.26.52,9.39.04,4.17-.11,8.35-.21,12.52-.08,3.41-.31,6.82-.29,10.22,0,2.26,1.26,3.86,3.19,5.06,3.37,2.09,7,3.26,11.26,3.72-.27-2.21-.48-4.25-.78-6.28-1.29-8.8-1.23-17.62-.25-26.44.27-2.46,1.88-4.09,3.9-5.33,2.48-1.52,5.24-2.21,8.09-2.57,3.87-.5,7.73-.63,11.69.32.57,3.55,1.07,7.02,1.69,10.46.55,3.08,1.26,6.14,1.8,9.22.31,1.74,1.1,2.93,2.82,3.54,1.24.44,2.42,1.06,4.13,1.83-2.69-10.84-4.88-21.35-5.41-32.44,1.67.43,3.03.78,4.65,1.19.37,2.83.6,5.75,1.15,8.61,1.35,7.08,2.95,14.12,4.22,21.22.65,3.67,2.74,5.34,6.6,5.75-3.49-11.25-6.1-22.55-7.04-34.52,3.32.47,6.45.92,9.68,1.38.68,4.17,1.26,8.19,2.01,12.18,1.54,8.14,3.87,16.05,6.78,23.81.53,1.42,1.37,2.13,2.75,2.52,7.86,2.2,15.71,4.43,23.56,6.67,1.47.42,2.73.21,4.03-.66,2.85-1.89,5.79-3.65,8.69-5.46.72-.45,1.46-1.04,2.29.41-3.67,1.99-7.29,3.95-11.2,6.08.62.4.94.74,1.31.83,2.96.67,5.96,1.2,8.9,1.95,1.37.35,2.37.05,3.38-.82.79-.68,1.63-1.33,2.54-1.83.32-.18.91.15,1.89.35-1.39,1.13-2.36,1.92-3.81,3.1,4.81.89,9.12,1.68,14.04,2.59-.82-1.02-1.22-1.61-1.71-2.11-11.03-11.32-21.35-23.24-30.83-35.9-2.22-2.96-4.62-5.8-7.06-8.59-4.12-4.71-9.31-7.25-15.59-7.95-8.11-.91-16.28-1.72-24.25-3.4-23.68-5-40.35-18.69-49.18-41.41-3.7-9.52-4.91-19.53-4.47-29.68.27-6.16,1.01-12.3,1.56-18.45.51-5.72.33-11.41-.93-17.02-2-8.93-7.2-15.37-15.41-19.37-8.14-3.96-16.53-7.23-25.56-8.58-2.6-.39-4.93-1.39-7-2.98-3.59-2.74-4.98-6.47-4.29-10.82.66-4.19,3.47-6.63,7.44-7.76,4.14-1.18,8.33-.83,12.43.1,10.9,2.49,21.27,6.36,30.77,12.38,6.25,3.96,11.46,9.07,16.25,14.66,1.61,1.87,3.26,3.72,5.02,5.46,3.11,3.07,6.83,4.79,11.3,4.47,3.6-.26,7.2-.54,10.79-.86,7.04-.62,14.05-.67,20.98,1.02,8.71,2.13,16.14,6.56,22.62,12.66,7.38,6.96,12.79,15.27,16.71,24.59.57,1.35.67,2.47-.36,3.66-.8.93-1.39,2.03-2.1,3.05-.09.13-.33.17-.58.29-.83-2.1-1.6-4.23-2.5-6.3-4.46-10.21-10.85-18.95-19.91-25.57-7.27-5.31-15.4-8.27-24.43-8.25-5.22,0-10.43.55-15.64.87-1.8.11-3.6.3-5.4.38-5.62.23-10.45-1.74-14.52-5.52-1.95-1.81-3.81-3.74-5.46-5.81-11.87-14.94-28.04-22.26-46.16-26.09-2.28-.48-4.74-.36-7.09-.17-2.75.22-4.41,1.69-4.82,3.72-.48,2.39.47,4.67,2.9,5.96,1.56.83,3.33,1.43,5.08,1.71,9.79,1.55,18.85,5.17,27.52,9.77,9.84,5.22,15.29,13.69,17.1,24.57,1.35,8.06.79,16.1-.26,24.14-1.59,12.21-1.29,24.35,2.79,36.07,7.18,20.62,21.66,33.46,42.66,39.07,7,1.87,14.19,2.6,21.36,3.42,3.11.36,6.24.69,9.32,1.24,5.11.91,9.52,3.32,13.14,6.98,2.6,2.63,5.11,5.4,7.33,8.35,9.86,13.07,20.34,25.61,31.76,37.36.74.77,1.2,1.88,1.58,2.91.48,1.32.75,2.72,1.13,4.14.82.21,1.54.46,2.28.56.82.12,1.67.1,2.77.15-.1-.8-.12-1.42-.25-2.02-2.06-9.46-4.37-18.88-6.12-28.4-1.27-6.9-2.08-13.92-2.6-20.92-1.97-26.58-1.91-53.21-1.85-79.83,0-1.13,0-2.26,0-4.12-.9,1.12-1.45,1.7-1.87,2.35-4.35,6.69-8.91,13.27-12.95,20.15-2.59,4.41-5.91,6.22-10.96,5.84-5.02-.38-6.43-.05-7.16-6.85-.5-4.6.42-8.8,3.09-12.71,7.55-11.07,14.97-22.24,22.42-33.38,2.38-3.55,4.77-7.11,7.01-10.74.61-.99.98-2.27,1.04-3.44.27-5.41.4-10.83.58-16.25.22-6.79,1.88-13.14,5.8-18.79,5.95-8.6,11.89-17.2,17.83-25.81.51-.73.96-1.5,1.44-2.25-.19-.15-.39-.3-.58-.46-.36.52-.7,1.05-1.09,1.54-7.14,9.14-14.31,18.25-21.39,27.44-1,1.3-1.97,1.96-3.56,1.56-.27-.07-.56-.08-.85-.11-3.89-.37-4.27-.76-4.56-4.59-.33-4.41.36-8.73,1.41-12.99,1.34-5.46,3.09-10.78,5.61-15.82,6.48-12.91,13.04-25.78,19.48-38.7,3.3-6.63,6.41-13.36,9.6-20.05,1.3-2.72,1.63-2.89,4.63-2.32,2.33.44,4.66.86,7.31,1.35.23,2.25.46,4.46.72,6.97,1.7-1.06,1.94-2.97,3.48-4.24.22,1.67.42,3.17.62,4.67.17.07.33.14.5.21.89-1.34,1.79-2.67,2.96-4.43.26,2.01.46,3.53.73,5.68,1.26-1.83,2.15-3.12,3.36-4.87.29,1.95.51,3.39.82,5.48,1.19-1.72,2.1-3.05,3.41-4.93.22,2.15.38,3.68.61,5.92,1.3-1.94,2.21-3.31,3.49-5.21.19,2.08.34,3.6.55,5.89,1.31-1.84,2.25-3.15,3.54-4.96.2,2.02.34,3.45.48,4.89.17.08.33.16.5.24.92-1.31,1.85-2.62,3.08-4.37.23,1.95.4,3.39.61,5.16,1.73-1.05,2.02-2.94,3.5-4.14.26,1.73.49,3.24.79,5.22,1.18-1.69,2.09-2.99,3.12-4.46,1.17,1.54.12,3.29,1.1,4.96,1.04-1.44,2-2.77,3.31-4.58.17,2.07.29,3.59.48,5.85,1.32-1.88,2.27-3.22,3.64-5.17.15,2.1.26,3.6.36,5.1.16.09.31.17.47.26.94-1.3,1.89-2.6,3.18-4.38.2,1.97.35,3.4.5,4.83.16.08.32.16.48.25.94-1.31,1.87-2.61,3.15-4.39.24,2.02.41,3.46.67,5.58,1.28-1.81,2.22-3.16,3.17-4.5.18.01.35.03.53.04.07,1.51.14,3.01.22,4.79,1.8-1,2.13-3,3.77-4.27.12,1.74.22,3.26.37,5.55,1.36-1.85,2.32-3.17,3.68-5.02.13,2.09.23,3.6.37,5.85,1.36-1.87,2.33-3.21,3.65-5.02.11,1.24.2,2,.25,2.77.05.73.08,1.46.61,2.44,1.01-1.39,2.02-2.78,3.41-4.7.12,2.07.21,3.53.31,5.28,1.88-.95,2.16-2.99,3.86-4.23.09,1.72.17,3.24.28,5.37,1.36-1.69,2.41-2.99,3.87-4.79v5.06c.18.09.37.18.55.27,1.03-1.37,2.05-2.75,3.44-4.61.1,2.07.17,3.58.29,5.85,1.38-1.84,2.36-3.14,3.77-5.01.11,2.04.19,3.47.28,5.17,1.89-.94,2.2-3.02,3.94-4.16v4.72c.19.08.39.17.58.25,1.48-1.98,2.95-3.96,4.51-6.05,2.18.35,4.34.62,6.46,1.06,2.67.56,3.2,1.97,1.64,4.33-3.05,4.59-6.11,9.18-9.27,13.7-1.17,1.67-2.02,3.43-2.37,5.42-.53,2.98-1.86,5.55-3.76,7.89-2.09,2.58-4.1,5.23-6.12,7.82.1.38.1.7.26.9,6.71,8.74,10.64,18.83,14.05,29.13,4.01,12.12,6.47,24.6,8.15,37.24,1.88,14.16,2.32,28.41,2.87,42.66.39,10.07.81,20.14.95,30.22.28,20.86-1.39,41.6-4.33,62.24-1.82,12.79-3.64,25.58-5.46,38.37-.06.44-.05.89-.08,1.67,3.48-.52,6.71-1,10.59-1.58-1.96-1.69-3.43-2.95-5-4.31.49-.57.9-1.04,1.47-1.7,1.65,1.47,3.27,2.78,4.73,4.25,1.07,1.07,2.19,1.3,3.61.98,2.46-.55,4.96-.98,7.51-2.01-3.87-2.54-7.73-5.07-11.78-7.73.48-.62.85-1.09,1.4-1.8,1,.72,1.91,1.35,2.79,2.02,2.89,2.16,5.81,4.3,8.66,6.52.98.76,1.94,1.07,3.15.79,3.42-.79,6.85-1.52,11-2.43-7.28-4.25-14.32-7.64-21.28-11.59.42-.57.79-1.07,1.25-1.69.75.41,1.41.74,2.04,1.12,5.65,3.51,11.31,7,16.92,10.59,1.45.93,2.76,1.28,4.5.78,7.48-2.16,14.98-4.21,22.5-6.21,1.54-.41,2.39-1.19,2.96-2.68,4.48-11.88,7.56-24.09,8.78-36.75.2-2.08.44-4.15.68-6.45,3.12-.87,6.27-1.75,9.69-2.7-.43,14.92-3.2,29.1-7.73,43,3.69.06,5.23-.99,6.14-4.1,3.39-11.73,5.57-23.66,6.08-35.88.05-1.23.19-2.47.3-3.7.03-.28.11-.55.22-1.04,1.29-.52,2.66-1.08,4.48-1.81.07,14.52-2.33,28.34-6,42.36,2.37-.45,4.12-1.33,5.75-2.37.52-.33.79-1.25.93-1.96,1.16-5.96,2.27-11.94,3.38-17.91.12-.65.2-1.3.35-2.27,1.61-.33,3.24-.76,4.89-.99,5.1-.71,10.22-1.1,15.29.23,1.09.29,2.18.69,3.18,1.22,2.34,1.26,3.53,3.16,3.71,5.94.72,11.06.06,22.03-1.64,32.94.18.15.32.37.45.37,4.6-.18,8.7-1.77,12.34-4.54,1.39-1.06,1.89-2.65,1.93-4.29.06-2.75.14-5.53-.18-8.25-.69-5.79-.67-11.54-.06-17.35.42-4.05.34-8.17.16-12.25-.26-6.06-3.76-8.91-9.77-8.25-.46.05-.92.15-1.43.53,1.18.32,2.4.52,3.53.97,3.17,1.26,4.08,4.71,1.72,6.8-.69.61-1.86.87-2.83.93-6.12.37-12.13-.57-18.1-1.82-3.98-.84-7.96-1.69-12.31-2.61ZM204.52,90.49c-1.56,2.09-.68,4.38-.92,6.58.2.02.4.03.6.05.11-2.21.22-4.43.32-6.66v-2.49c-.07,0-.14,0-.21,0,.07.84.14,1.67.21,2.51Zm-12.29,81.71c-3.44,2.66-4.92,6.05-4.14,10.44.86,4.85,1.83,9.71,2.29,14.6.94,10.03.98,20.09.31,30.14-.11,1.59-.01,3.2-.01,4.8,1.5-6.97,1.94-14.04,2.03-21.12.12-9.23-.62-18.4-3.1-27.34-1.05-3.78-.44-7.11,2.03-10.14.31-.38.37-.97.55-1.45.57-.29,1.14-.57,1.71-.86-.17-.22-.34-.44-.51-.66-.38.53-.76,1.05-1.15,1.58Zm-105.17,86.39c-1.45-1.38-2.75-.88-3.96-.52-4.53,1.33-7.74,5.68-7.9,10.76-.26,8.3.37,16.54,2.06,24.66,1.88,9.07,3.06,18.17,2.15,27.45-.21,2.17-.07,4.37-.15,6.56-.11,3.2,1.02,5.94,2.89,8.46,2.07,2.79,4.72,4.94,7.61,6.81,6,3.87,12.33,7.13,18.88,9.95,22.66,9.76,46.45,15.42,70.7,19.28,10.87,1.73,21.82,3.06,32.78,4.14,10.3,1.02,20.65,1.67,31,2.12,15.87.69,31.75.57,47.61-.5,9.95-.68,19.91-1.4,29.83-2.46,13.22-1.4,26.36-3.45,39.4-6.1,17.51-3.57,34.75-8.11,51.36-14.82,8.65-3.49,17.01-7.55,24.78-12.76,6.78-4.54,10.25-10.47,9.29-19.03-1.04-9.38-.41-18.75,1.84-28.03,2.03-8.34,2.42-16.93,2.32-25.49-.03-2.01-.75-4.11-1.56-5.99-1.09-2.54-3.22-4.22-5.82-5.16-1.05-.38-2.23-.64-2.83,1.01.6.38,1.14.73,1.68,1.08,2.79,1.82,3.81,4.51,3.23,7.65-.55,2.96-1.97,5.46-4.76,7.09-7.24,4.22-14.73,7.9-22.47,11.08-26.43,10.84-54.01,17.29-82.14,21.61-16.54,2.54-33.19,4.11-49.89,4.92-23.3,1.14-46.57.51-69.79-1.67-13.33-1.25-26.6-3.08-39.78-5.49-18.24-3.34-36.2-7.73-53.73-13.79-12.59-4.35-24.83-9.49-36.32-16.3-2.67-1.58-4.06-3.98-4.76-6.8-.89-3.61.78-6.88,4.08-8.54.71-.36,1.43-.71,2.36-1.18Zm299.46,110.44c-1.13.23-1.84.37-2.55.52-9.73,2.17-19.43,4.43-29.18,6.48-5.48,1.16-11.09,1.71-16.53,3.01-21.23,5.11-42.77,7.83-64.56,8.66-12.64.48-25.28.15-37.9-.86-11.66-.93-23.25-2.33-34.73-4.58-5.77-1.13-11.49-2.59-17.29-3.55-14.43-2.4-28.8-5.06-42.93-8.88-.7-.19-1.44-.27-2.58-.48,4.22,9.49,5.39,18.73.7,28.06.96-9.74-.4-19.24-2.67-28.78-1.36-.4-2.67-.79-4.36-1.29.27,2.04.39,3.64.71,5.2,1.4,6.82,2.3,13.68,1.85,20.67-.08,1.23-.08,2.47-.18,3.7-.37,4.26,1.38,7.58,4.56,10.23,1.09.91,2.2,1.85,3.44,2.53,4.24,2.34,8.41,4.85,12.83,6.79,19.58,8.58,40.29,12.87,61.38,15.44,10.18,1.24,20.43,1.95,30.67,2.6,12.83.81,25.68.59,38.48-.46,11.07-.91,22.12-2.25,33.11-3.82,13.65-1.96,27.03-5.2,40.07-9.76,8.54-2.99,16.8-6.59,24.36-11.63,4.95-3.29,7.8-7.51,7.14-13.84-.42-4.04-.28-8.16-.04-12.23.17-2.92.98-5.8,1.42-8.7.33-2.19,1.15-4.36.61-6.89-1.51.45-2.85.85-4.23,1.26-2.3,9.79-3.79,19.53-2.8,29.52-4.76-9.71-3.49-19.22,1.21-28.92ZM302.29,60.09c1.01,2.97,2.01,5.94,3.02,8.92-2.92-4.03-5.09-8.45-8.54-12.06,1.11,3.33,2.21,6.65,3.32,9.98-2.65-3.77-4.7-7.81-7.82-11.18.92,2.96,1.83,5.91,2.75,8.87-1.45-1.58-2.37-3.34-3.35-5.06-1-1.76-2.06-3.48-3.1-5.21-.18.08-.36.17-.55.25.8,2.96,1.59,5.93,2.39,8.89-2.46-3.42-4-7.23-6.75-10.38.75,3.1,1.51,6.21,2.26,9.31-2.42-3.17-3.63-6.94-6.2-9.98.66,3.32,1.31,6.64,1.97,9.96-.12.03-.24.06-.36.09-1.71-3.73-3.43-7.46-5.14-11.18-.16.07-.32.13-.49.2.5,3.25,1.01,6.51,1.51,9.76-.14.05-.27.09-.41.14-1.4-3.35-2.8-6.7-4.19-10.06-.19.05-.37.09-.56.14.25,2.73.49,5.47.74,8.2-.18.04-.37.09-.55.13-1.2-3.21-2.39-6.41-3.59-9.62-.2.04-.4.08-.61.12.19,3.2.39,6.4.58,9.6-.15.03-.3.06-.45.08-1.1-3.43-2.2-6.85-3.31-10.28-.16.05-.33.1-.49.14v10.07c-.12.02-.24.03-.36.05-.96-3.61-1.93-7.22-2.89-10.83-.16.02-.32.03-.48.05-.2,3.21-.41,6.43-.64,10.2-1.49-3.81-1.46-7.43-3.19-10.58-.29,3.44-.59,6.88-.88,10.32-.12.01-.25.03-.37.04-.62-3.69-1.23-7.38-1.85-11.07-.16-.02-.31-.03-.47-.05-.51,3.3-1.02,6.6-1.53,9.91-.69-1.77-.88-3.46-1.14-5.15-.24-1.57.2-3.3-1.07-5.17-.73,4.05-1.39,7.65-2.04,11.24-.13,0-.26-.02-.39-.03-.25-3.72-.49-7.43-.74-11.15-.19-.02-.38-.04-.57-.06-.84,3.92-1.69,7.85-2.64,12.26-1.06-4.15-.12-8-.72-11.71-.19-.02-.38-.04-.58-.06-1.05,4.67-2.1,9.34-3.15,14.01-.08,0-.16,0-.25,0v-13.08c-2.27,4.94-3.38,10.12-4.74,15.31.22-4.51.44-9.03.65-13.54-1.09,1.7-1.75,3.46-2.18,5.28-1.45,6.05-1.7,12.22-1.63,18.41.37,30.81.67,61.62,1.14,92.42.35,23.29-.09,46.61,1.62,69.86.73,9.94,1.79,19.88,3.28,29.73,1.49,9.85,3.71,19.59,5.57,29.39.65,3.44,1.15,6.91,1.71,10.3,3.51.89,14.55,1.04,16.94.23-.67-.3-1.26-.57-1.86-.84-4.37-2.01-7.45-5.19-8.88-9.85-.64-2.09-1.29-4.17-1.85-6.28-2.15-8.2-2.99-16.63-4.13-25-2.07-15.18-3.43-30.43-3.67-45.73-.55-35.08-.85-70.17-1.17-105.26-.05-5.51.2-11.03.52-16.53.39-6.88,4.95-11.73,13.21-9.88-.65.12-1.1.22-1.56.28-8.01,1.04-8.86,5.67-8.61,11,0,.09.02.19.02.28.42,12.73,1.03,25.46,1.21,38.2.35,25.2.36,50.4.73,75.6.14,9.97.55,19.97,1.41,29.9.87,10.12,2.37,20.19,3.75,30.26,1,7.25,2.44,14.41,4.67,21.41,1.26,3.95,3.81,6.49,7.64,7.84,1.25.44,2.52.89,3.82,1.13,3.17.59,6.37,1.05,9.55,1.57.7.12,1.46.02,1.68,1.12.29,1.47,1.26,1.01,2.13.58.84-6.36,4.02-9.15,8.46-7.51-4.77,1.75-5.98,3.52-5.13,7.61,1.58,0,3.18-.05,4.78.02,1.25.06,1.95-.52,2.37-1.62.04-.11.26-.15.4-.22.1.45.21.9.38,1.64,6.69-.55,13.31-1.16,19.93-1.61,3.08-.21,4.82-1.96,5.99-4.53.56-1.24.98-2.55,1.47-3.83.18.05.36.11.53.16-.57,2.35-1.14,4.7-1.8,7.39,2.35-.29,4.56-.55,6.85-.83.45-3.47.82-6.68,1.28-9.87,1.87-13.07,3.86-26.12,5.63-39.21,2.26-16.79,3.49-33.66,3.27-50.61-.15-11.79-.63-23.57-1.02-35.35-.46-13.68-1.07-27.35-2.85-40.94-1.85-14.08-4.85-27.88-9.78-41.22-2.54-6.87-5.31-13.64-9.6-19.67-.65-.91-1.35-1.79-2.03-2.68-.14.07-.29.14-.43.21,1.39,4.05,2.78,8.09,4.16,12.14-.19.08-.37.15-.56.23-2.67-5.53-5.24-11.11-9.39-15.87Zm13.66-20.01c-.15-.05-.3-.1-.44-.14.69-3.77,1.38-7.54,2.07-11.31-.16-.07-.33-.13-.49-.2-1.74,3.73-3.48,7.46-5.22,11.19-.13-.04-.25-.07-.38-.11.52-3.51,1.03-7.01,1.55-10.52-.17-.07-.34-.13-.51-.2-1.53,3.41-3.07,6.81-4.6,10.22-.14-.03-.29-.07-.43-.1.52-3.6,1.03-7.2,1.64-11.42-2.55,3.68-3.47,7.52-5.58,10.82.4-3.34.81-6.68,1.21-10.01-.18-.06-.37-.12-.55-.18-.74,1.59-1.52,3.16-2.2,4.77-.69,1.63-1.3,3.29-1.94,4.94-.17-.06-.35-.12-.52-.18.43-3.56.86-7.13,1.3-10.69-.19-.05-.38-.09-.58-.14-1.44,3.57-2.88,7.14-4.32,10.71-.13-.02-.27-.04-.4-.06.38-3.59.77-7.18,1.15-10.77-2.42,3.09-3.21,6.87-5.16,10.19.38-3.7.76-7.39,1.14-11.09-.2-.05-.4-.11-.6-.16-1.38,3.58-2.75,7.16-4.13,10.74-.14-.04-.29-.08-.43-.12.37-3.73.74-7.45,1.11-11.18-2.37,3.29-3.22,7.18-5.09,10.73.34-3.89.69-7.79,1.03-11.68-.17-.05-.34-.1-.51-.15-1.37,3.77-2.73,7.55-4.1,11.32-.14-.02-.28-.05-.42-.07.32-3.92.65-7.84,1.01-12.23-2.47,3.86-3.07,8.01-5.03,11.69.31-4.05.63-8.1.97-12.59-2.35,3.99-3.07,8.19-4.94,12.01.26-4.03.52-8.07.78-12.1-.18-.04-.35-.08-.53-.12-1.27,3.91-2.55,7.82-3.82,11.72-.13-.02-.26-.04-.39-.06.19-3.9.38-7.81.57-11.71-2.25,3.47-2.86,7.49-4.57,11.15.17-3.96.34-7.91.5-11.87-2.17,3.36-2.73,7.32-3.96,11.01-.18-.05-.36-.09-.54-.14.15-3.95.3-7.91.47-12.51-2.12,4.18-2.78,8.21-4.17,11.95v-11.92c-.17-.04-.34-.08-.51-.12-1.1,3.85-2.2,7.7-3.29,11.55-.08-.01-.16-.03-.24-.04v-12.34c-.16-.04-.32-.07-.48-.11-1.1,3.96-2.19,7.92-3.29,11.89-.1-.01-.2-.02-.3-.03v-12.33c-2.01,3.68-2.63,7.82-3.57,11.86-.18-.04-.37-.08-.55-.12v-11.87c-2.02,3.58-2.48,7.58-3.48,11.41-.19-.03-.38-.06-.57-.09v-12.01c-2.08,3.62-2.45,7.66-3.65,11.48-.3-2.1-.43-4.16-.47-6.23-.05-2.08-.01-4.16-.01-6.24-.19-.02-.39-.05-.58-.07-.94,3.99-1.87,7.99-2.81,11.98-.45-2.1-.64-4.16-.71-6.22-.07-2.07-.02-4.15-.02-6.23l-.58-.09c-.91,4.01-1.82,8.01-2.73,12.02-.16-.01-.33-.03-.49-.04v-14.08c-2.26,4.33-2.62,9.07-3.59,13.69-1.58-7.31-.78-14.65-.16-22.04-.9-.13-1.53-.22-2.25-.32-.13.51-.25.86-.3,1.22-.97,6.51-1.37,13.06-1.07,19.62.15,3.35-.53,6.41-1.94,9.37-.78,1.63-1.59,3.24-2.47,4.82-4.98,8.98-9.99,17.94-14.97,26.91-.44.79-.79,1.62-1.19,2.44.18.1.36.19.54.29,7.19-11.53,14.37-23.06,21.89-35.12-.23,1.75-.38,2.91-.53,4.08.1.05.21.11.31.16.66-1.07,1.32-2.14,2.24-3.63-.19,1.46-.32,2.45-.45,3.43.11.04.21.09.32.13.58-.82,1.15-1.64,2.04-2.89-.19,1.51-.31,2.44-.43,3.37.1.03.2.05.31.08.65-1,1.3-2.01,2.24-3.46-.22,1.51-.35,2.41-.49,3.32.11.05.22.09.33.14.58-.8,1.15-1.61,2.11-2.94-.29,1.61-.45,2.51-.61,3.41l.36.17c.67-1.05,1.33-2.11,2.3-3.63-.27,1.62-.45,2.7-.62,3.78.15.03.29.06.44.09.57-.94,1.13-1.88,1.7-2.82.1.04.2.07.31.11-.16.98-.32,1.96-.47,2.94.11.04.21.08.32.11.69-1.04,1.37-2.08,2.06-3.12.08.04.16.08.24.12-.24,1.06-.49,2.12-.73,3.18l.38.16c.64-.96,1.28-1.92,2.13-3.21v3.17c.87-1.27,1.41-2.06,2.24-3.28v2.46c.75-.64,1.19-1.02,1.4-1.2.58.23,1.02.54,1.44.52.36-.02.93-.67,1.03-.59,1.28,1.05,2.71.32,4.05.49,4.97.65,9.92,1.48,14.89,2.21,3.02.44,6.15.49,9.05,1.33,2.89.84,5.98.57,8.76,1.88.66.31,1.8.52,2.26.17,1.08-.83,1.29,1.11,2.18.45.7-.53,1.25,1.3,2.12.17.86-1.11.95,1.8,1.93.42.95.71,1.86.93,2.63-.56.07.78.11,1.2.17,1.84.71-.38,1.16-.63,1.62-.88.19.38.38.76.65,1.31.63-.59,1.08-1,1.54-1.44.07.63.13,1.17.22,2.04.69-.64,1.09-1,1.51-1.39.08.6.16,1.17.24,1.75.2.12.39.24.59.36.48-.57.96-1.14,1.3-1.54-.07.52-.15,1.16-.32,2.47.96-1.12,1.44-1.68,1.93-2.23.06-.06.24,0,.37,0-.14.74-.28,1.42-.54,2.74,1.12-1.23,1.78-1.97,2.85-3.14-.44,1.38-.7,2.2-.96,3.01.11.05.22.1.34.15.72-.77,1.44-1.55,2.44-2.61-.26,1.08-.42,1.75-.59,2.43.24.19.48.37.72.56.57-.85,1.14-1.71,1.71-2.56.06.07.12.14.18.22-.27.77-.55,1.54-.82,2.3.1.07.2.14.3.21.56-.49,1.11-.97,1.94-1.7-.11.96-.18,1.52-.29,2.5,1.09-1.2,1.88-2.08,2.96-3.26-.39,1.27-.64,2.1-1.01,3.34.97-.8,1.54-1.27,2.36-1.95-.16.94-.25,1.45-.36,2.12,2.37-1.95,3.56-3.78,4.54-7.14,1.95-6.69,4.63-13.06,8.24-19.04.33-.54.53-1.16.82-1.79-1.54-.86-1.98.36-2.53,1.13-2.83,3.96-5.08,8.24-6.86,12.78-.33.84-.75,1.66-1.12,2.48Zm-103.1,125.24c-4.09,1.24-7.49,2.98-10.42,5.63-1.92,1.74-2.69,3.74-1.9,6.39.7,2.34,1.04,4.78,1.58,7.36-2.48,1.09-4.77,2.11-7.07,3.13.05.18.11.35.16.53,2.37-.42,4.74-.85,7.03-1.26.82,1.25.52,1.87-.65,2.33-1.86.73-3.66,1.6-5.48,2.41.06.19.13.37.19.56,2.21-.4,4.42-.81,6.58-1.21.83,1.15.54,1.77-.64,2.23-1.87.74-3.7,1.59-5.55,2.4.06.19.12.37.18.56,2.19-.39,4.38-.77,6.52-1.15.75,1.4.02,1.85-.97,2.25-1.8.73-3.58,1.52-5.37,2.29.06.18.12.36.18.54,2.26-.37,4.52-.74,6.78-1.11.09.23.18.46.27.69-1.58,2.57-5.06,2.23-7.59,4.46,2.84-.48,5.12-.86,7.64-1.28-.12,2.43-2.01,2.28-3.2,2.88-1.37.69-2.81,1.22-4.22,1.82.05.14.1.28.15.42,2.37-.39,4.73-.77,7.28-1.19-.21,2.48-2.15,2.23-3.33,2.87-1.34.73-2.79,1.24-4.2,1.85.05.12.09.23.14.35,2.38-.41,4.77-.83,7.25-1.26.22,2.47-1.77,2.13-2.83,2.72-1.24.69-2.61,1.15-3.92,1.71.05.16.11.33.16.49,2.17-.35,4.34-.71,6.5-1.06.09.23.17.46.26.69-1.72,2.55-5.27,2.17-7.55,4.21,2.56.27,4.82-1.31,7.83-.6-2.46,2.69-5.88,2.64-8.78,4.75,2.95-.46,5.32-.83,7.87-1.23-.31,2.58-2.36,2.28-3.64,2.94-1.35.7-2.82,1.17-4.24,1.75l.14.45c2.38-.38,4.76-.77,7.14-1.15-1.43,3.53-5.35,2.82-7.84,5.21,2.75-.42,5.11-.79,7.55-1.16-.12,2.29-.24,4.17-.3,6.06-.05,1.52.45,2.82,1.75,3.69,2.83,1.89,5.99,2.64,9.68,2.81-.37-25.98-.73-51.7-1.1-77.75Zm-1.51-63.19c.35,1.76.77,3.22.92,4.7.53,5.44-.99,10.4-4.13,14.77-1.93,2.69-4.13,5.23-6.47,7.57-4.65,4.67-8.84,9.68-12.44,15.19-9.52,14.55-19.03,29.11-28.53,43.66-.44.68-.79,1.42-1.24,2.24,1.61.48,2.66.05,3.43-1.1.79-1.18,1.58-2.37,2.37-3.56,8.32-12.61,16.63-25.23,24.97-37.82,4.63-6.99,9.77-13.55,15.78-19.45,2.02-1.98,3.8-4.27,5.34-6.64,2.55-3.91,3.82-8.27,3.28-13-.28-2.45-.91-4.8-3.28-6.56Zm5.49-98.44c-.77,2.83-1.38,5.31-2.12,7.75-4.79,16.05-10.97,31.58-17.75,46.87-3.78,8.51-7.81,16.91-11.7,25.36-.38.83-1.1,1.63-.63,3.34,14.82-26.53,27.02-53.51,34.56-82.64-.9-.26-1.49-.44-2.37-.69Zm1.59,300.97c-3.56-18.79-9.31-36.93-11.32-55.83-2.28.46-2.36.47-2.18,1.93.37,3.01.68,6.05,1.29,9.02,2.01,9.75,4.12,19.49,6.22,29.22,1.12,5.18,2.3,10.34,3.48,15.65h2.51Zm-1.71-130.17c-.2,0-.4.01-.6.02.03,24.09,1.24,48.17,1.77,72.25-1.87.76-3.59,1.46-5.3,2.15.06.19.12.38.17.57,2.26-.47,4.52-.94,6.98-1.46-1.01-24.69-2.01-49.12-3.01-73.54Zm-14.97-9.57c2.31.03,2.47-1.18,2.46-2.65-.04-7.7-.03-15.41-.05-23.11,0-.5-.14-1-.25-1.68-1.76.88-2.03,2.16-2.04,3.66-.07,7.04-.2,14.07-.28,21.11-.01.83.1,1.66.16,2.67Zm14.18,6.46s.06,0,.09,0v-2.33s-.06,0-.09,0v2.33Z"/>
    <path class="cls-2" d="m335.26,287.77c.38-2.61.69-5.24,1.17-7.83.15-.78.66-1.57,1.19-2.2,7.27-8.67,14.66-17.23,21.82-25.99,6.68-8.18,15.18-12.99,25.49-14.94,9.6-1.82,19.2-3.71,28.49-6.86,6.41-2.17,12.56-4.88,18.32-8.46,5.78-3.6,10.86-7.98,15.26-13.18,7.67-9.08,14.13-18.86,17.77-30.29,3.55-11.13,3.88-22.21-.76-33.16-6.87-16.22-23.76-27.06-41.3-25.89-19.73,1.31-36.35,9.46-49.69,24.15-.32.35-.64.69-1.06,1.15-1.37-.63-2.75-1.22-4.08-1.9-1.36-.7-2.54-.45-3.71.44-2.45,1.86-3.94,4.35-4.75,7.26-.5,1.8-.04,3.39,1.41,4.63,1.15.99,2.32,1.95,3.63,3.04-.5,1.76-1.06,3.55-1.5,5.37-1.13,4.65-1.51,9.37-1.39,14.15.15,6.18.28,12.36.46,18.53.41,14.11-1.44,27.75-9.02,40-3.64,5.89-7.81,11.46-11.72,17.19-.21.31-.31.7-.8.82.48-4.74-.08-9.39,3.18-13.53,5.14-6.53,8.92-13.89,10.95-22.05,1.41-5.66,2.09-11.41,2.04-17.22-.06-6.37-.31-12.73-.49-19.1-.21-7.34.04-14.63,2.08-21.88-.65-.69-1.31-1.36-1.92-2.07-2.3-2.62-3.05-5.62-2.13-9.01.93-3.47,2.59-6.52,5.16-9.05,3.17-3.13,6.72-4.67,11.16-2.36.59-.52,1.17-.99,1.7-1.5,12.82-12.5,28.23-19.99,45.86-22.25,27.64-3.54,48.54,15.34,53.42,36.27,2.38,10.22,1.7,20.28-1.83,30.02-7.12,19.68-18.75,36-36.88,47.08-9.67,5.9-20.35,9.28-31.32,11.78-6.11,1.39-12.25,2.62-18.37,3.95-7.2,1.56-13.28,5.06-18.06,10.69-5.53,6.53-10.99,13.12-16.52,19.64-4.18,4.93-8.43,9.8-12.65,14.7-.19-.05-.39-.1-.58-.14Z"/>
    <path class="cls-2" d="m457.68,165.66c.05,7.7-1.78,14.76-5.27,21.3-7.42,13.91-18.42,24.05-32.98,30.15-7.43,3.11-15.24,4.1-23.17,2.18-12.17-2.94-19.82-10.81-23.43-22.6-6.19-20.19,1.99-50.71,28.24-62.29,9.28-4.1,18.93-5.51,28.94-3.46,15.84,3.25,28.04,17.1,27.67,34.72Zm-36.96-30.44c-3.09.44-6.24.63-9.27,1.34-29.84,7.01-39.3,37.9-33.63,57.92,2.56,9.04,8.05,15.63,17.19,18.7,5.73,1.93,11.56,1.94,17.4.44,11.49-2.94,20.4-9.84,28.09-18.53,6.6-7.45,10.81-16.06,11.72-26.05,1.02-11.2-2.54-20.59-11.69-27.5-5.84-4.4-12.53-6.16-19.81-6.34Z"/>
    <path class="cls-2" d="m144.52,185.81c-.17,11.54-3.91,22.45-12.79,31.19-8.05,7.92-17.99,10.74-29.03,9.58-12.53-1.31-22-7.83-28.12-18.62-9.51-16.78-10.33-34.1-1.39-51.47,3.37-6.54,8.29-11.8,14.57-15.7,10.57-6.56,21.33-6.64,32.16-.71,6.3,3.45,11.27,8.39,15.18,14.36,6.09,9.28,9.35,19.46,9.42,31.36Zm-5.3-1.79c-.31-10.56-3.84-20.9-11-29.91-3.41-4.29-7.55-7.75-12.54-10.11-7.82-3.7-15.58-3.68-23.24.44-6.12,3.29-10.76,8.1-14.12,14.11-5.3,9.47-6.92,19.63-5.15,30.29,1.26,7.62,4.11,14.6,9,20.67,13.19,16.37,39.65,16.27,51.25-3.39,3.86-6.54,5.66-13.63,5.81-22.1Z"/>
    <path class="cls-2" d="m450.96,131.84c7.07,5.55,11.66,12.78,13.42,21.69,1.89,9.52.49,18.74-3.09,27.65-4.72,11.73-11.83,21.9-20.9,30.63-7.96,7.67-17.74,12.29-28.13,15.7-8.59,2.82-17.47,4.41-26.28,6.33-3.7.81-7.4,1.78-10.93,3.11-6.15,2.33-11.29,6.24-15.54,11.26-6.64,7.83-13.24,15.7-19.86,23.55-.6.71-1.25,1.38-2.26,2.5.37-3.88.68-6.96,3.14-9.79,5.67-6.53,11-13.35,16.34-20.15,2.05-2.61,3.86-5.42,5.58-8.26,3.5-5.75,8.57-8.6,15.25-9.01,6.82-.42,13.67-.79,20.44-1.73,15.67-2.17,30.07-7.52,41.67-18.68,10.88-10.46,18.41-22.9,20.9-38.04,1.35-8.17.67-16.14-2.87-23.68-2.09-4.46-4.59-8.72-6.9-13.07Z"/>
    <path class="cls-2" d="m9.59,96.38c1.2-1.54,2.65-1.76,4.04-1.62,2.92.3,5.91.49,8.7,1.31,5.09,1.5,10.13,3.22,15.04,5.23,9.11,3.74,16.85,9.46,23.23,17.02,2.14,2.54,4.38,5.01,6.74,7.35,3.01,2.99,6.57,5.11,10.73,6.2,3.06.8,6.05.22,9.03-.34,6.46-1.21,12.92-2.18,19.53-1.52,9.93,1,18.79,4.52,26.22,11.27,8.21,7.46,13.73,16.64,17.15,27.15.41,1.26.44,2.31-.4,3.44-.95,1.28-1.69,2.71-2.78,4.49-.34-1.24-.57-2.01-.76-2.79-2.53-10.13-7.03-19.31-13.93-27.12-10.64-12.05-23.88-15.85-39.41-11.63-2.84.77-5.64,1.73-8.53,2.2-7.28,1.2-13.52-.62-18.22-6.7-4.18-5.42-8.4-10.82-13.62-15.31-10.56-9.11-22.69-14.74-36.6-16.41-2.11-.25-4.33-.32-6.15-2.21Z"/>
    <path class="cls-2" d="m448.79,137.04c-4.99-3.44-10.08-6.36-15.93-7.62-16.58-3.59-31.48.24-44.6,10.8-10.27,8.27-15.97,19.37-18.57,32.15-1.77,8.71-1.62,17.36,1.07,25.9,1.47,4.67,3.7,8.94,6.79,12.74.48.59.94,1.19,1.4,1.79.03.03-.04.14-.16.48-2.07-1.61-3.87-3.37-5.39-5.39-5.23-6.97-8.09-14.75-8.15-23.53-.06-8.24,1.01-16.27,3.77-24.07,1.63-4.61.83-8.99-1.83-13.04-.44-.67-.94-1.31-1.15-2.34,1.44.64,2.89,1.24,4.32,1.92,3.14,1.49,4.42,1.33,6.78-1.23,4.14-4.5,8.71-8.48,13.81-11.85,8.08-5.36,16.92-8.7,26.63-9.04,10.69-.36,20.5,2.38,28.68,9.68.91.81,1.69,1.78,2.53,2.67Z"/>
    <path class="cls-2" d="m149.2,143.29c-2.17-2.56-4.13-4.87-6.08-7.17,3.12-6.82,28.83-29.37,36.78-32.28-.26,3.48-.57,6.95-.76,10.43-.06,1.08-.52,1.72-1.34,2.31-2,1.44-3.99,2.9-5.92,4.43-7.54,5.96-14.42,12.61-20.63,19.94-.61.72-1.24,1.41-2.04,2.33Z"/>
    <path class="cls-2" d="m147.26,196.69c1.48,1.03,2.86,1.98,4.56,3.17-.3,2.43-.63,5.14-.96,7.85-.44,3.58-1.01,7.15-1.3,10.75-.78,9.53,1.62,18.36,6.83,26.27,3.33,5.06,7.18,9.81,11.03,14.51,4.46,5.43,9.11,10.71,13.85,15.91,1.47,1.62,2.51,3.26,2.8,5.4.14,1.01.34,2.02.56,3.32-.54-.38-.89-.53-1.13-.79-11.47-12.32-22.64-24.9-31.85-39.06-4.07-6.25-7.24-12.94-8.65-20.33-.81-4.26-.84-8.53.71-12.65,1.56-4.11,2.44-8.37,3.06-12.7.08-.55.31-1.07.47-1.64Z"/>
    <path class="cls-2" d="m333.87,99.83c.64-1.07,1.51-.45,2.3.06,5.11,3.27,10.34,6.38,15.28,9.89,7.92,5.61,15.1,12.08,21.97,19.5-1.28,1.19-2.5,2.31-3.45,3.19-2.12,0-3.93-.17-5.68.06-1.35.17-1.85-.72-2.61-1.36-5.36-4.53-10.66-9.13-16.09-13.57-2.2-1.79-4.64-3.3-7.04-4.83-1.13-.72-1.74-1.55-1.96-2.9-.42-2.52-1.03-5.01-1.65-7.5-.21-.84-.68-1.62-1.08-2.52Z"/>
    <path class="cls-2" d="m182.05,272.6c-.64-.68-1.31-1.32-1.91-2.03-6.08-7.29-12.24-14.51-18.2-21.9-5.08-6.3-8.68-13.37-9.83-21.49-.33-2.34-.43-4.73-.46-7.09-.08-6.75,1.01-13.4,1.9-20.08h5.26c-.39,3.43-.74,6.61-1.12,9.78-.73,6.14-1.32,12.27-.02,18.41,1.35,6.36,4.31,11.94,8.31,16.97,4.32,5.42,8.72,10.77,13.18,16.08,1.32,1.57,2.34,3.09,2.43,5.25.08,1.97.57,3.92.88,5.87-.15.08-.29.15-.44.23Z"/>
    <path class="cls-2" d="m116.86,228.34c-4.6,2.99-9.64,3.94-14.94,3.45-12.17-1.13-21.62-7.33-28.48-16.98-8.42-11.83-12.93-25.13-11.74-39.92.45-5.56,1.93-10.85,5.09-15.54.91-1.36,2.08-2.54,3.49-4.24-1.44,4.72-3.08,8.7-3.84,12.84-3.19,17.37.01,33.39,11.63,47.02,9.7,11.37,22.33,15.6,37.11,13.43.38-.06.75-.11,1.13-.13.18-.01.37.04.56.07Z"/>
    <path class="cls-2" d="m330.56,86.41c19.45,9.3,35.99,21.54,50.43,37.11-1.28.94-2.4,1.76-3.69,2.71-.6-.51-1.2-.93-1.69-1.45-12.12-12.65-25.91-23.08-41.44-31.18-1.29-.67-2.1-1.48-2.42-2.89-.28-1.26-.68-2.49-1.19-4.29Z"/>
    <path class="cls-2" d="m173.54,96.36c1.32,1.09,2.48,2.05,3.83,3.18-14.3,9.02-26.87,19.93-37.92,33.04-1.25-1.02-2.38-1.94-3.69-3.01,10.99-13.12,23.54-24.15,37.78-33.21Z"/>
    <path class="cls-2" d="m364.35,202.57c2.81,11.97-.08,22.64-8.15,31.99,1.53-3.32,3.32-6.55,4.53-9.98,1.22-3.46,2.14-7.08,2.72-10.7.6-3.72.62-7.54.9-11.31Z"/>
    <path class="cls-2" d="m178.35,225c.12.68.23,1.04.25,1.41.02.46-.05.93-.1,1.81-1.93-.21-3.77-.4-5.6-.62-3.3-.39-6.59-.82-9.88-1.16-1.18-.12-1.77-.56-1.39-2.18,5.55-.13,11.13.68,16.73.74Z"/>
    <path class="cls-2" d="m161.17,217.22c-.07-1.06.01-1.9,1.11-1.75,5.33.71,10.66,1.48,16.06,2.24v3.08c-5.91-.97-11.57-2.24-17.17-3.57Z"/>
    <path class="cls-2" d="m163.77,232.79c5.08-.2,9.95-.39,15.03-.59.08,1.19.14,2.08.21,3.17-2.54,0-4.87.04-7.2-.01-1.98-.04-3.96-.25-5.94-.28-1.39-.02-2.12-.58-2.1-2.29Z"/>
    <path class="cls-2" d="m162.38,206.44c5.43,1.27,10.56,2.47,15.81,3.71v3.15c-5.11-1.56-10.06-3.08-15.03-4.56-1.17-.35-1.09-1.05-.78-2.3Z"/>
    <path class="cls-2" d="m122.67,237.08c2.14-.14,4.29-.35,6.43-.39,2.18-.05,4.37-.02,6.55.13,3.5.24,6.05,2.06,7.95,5.74-6.7-3.77-13.82-4.16-20.85-4.91-.03-.19-.05-.38-.08-.57Z"/>
    <path class="cls-2" d="m59,131.84c5.62,8.33,4.23,16.99,1.36,25.72,1.13-8.65.94-17.24-1.36-25.72Z"/>
    <path class="cls-2" d="m372.91,286.37c-7.28-3.11-14.56-6.21-21.85-9.33.45-1.47,1.18-1.82,2.4-1.17,1.25.67,2.53,1.29,3.8,1.94,5.31,2.7,10.62,5.39,15.94,8.09-.09.16-.18.32-.28.47Z"/>
    <path class="cls-2" d="m164.83,199.1c.97-.11,2.03-.53,2.9-.27,3.43.99,6.79,2.2,10.25,3.35v3.02c-4.55-1.82-8.86-3.55-13.17-5.27,0-.27.02-.55.02-.82Z"/>
    <path class="cls-2" d="m179.18,242.73c-3.1.15-5.73.24-8.35.41-1.59.1-2.06-.98-2.73-2.4,3.67-.44,7.17-.85,10.93-1.3.05,1.23.09,2.11.15,3.29Z"/>
    <path class="cls-2" d="m379.01,277.06c-7.26-2.37-14.52-4.75-21.78-7.12.19-2.04,1.3-1.57,2.38-1.13,5.43,2.19,10.87,4.39,16.3,6.59,1.13.46,2.26.93,3.39,1.4-.1.09-.19.18-.29.26Z"/>
    <path class="cls-2" d="m351.72,208.3c.59,1.7.18,2.66-1.45,3.11-2.25.61-4.48,1.3-6.72,1.95-.68-2.82-.65-2.92,1.61-3.5,2.16-.55,4.34-1.03,6.56-1.56Z"/>
    <path class="cls-2" d="m352.6,190.98c-.36.63-.56,1.53-1.1,1.83-2.54,1.43-5.17,2.7-8.09,4.18-.16-1.09-.27-1.86-.41-2.82,3.05-1.31,5.97-2.56,8.89-3.82.23.21.47.42.7.62Z"/>
    <path class="cls-2" d="m352.16,199.52c.56,1.47.42,2.3-.69,2.75-2.54,1.02-5.09,2.02-7.64,3.04-.84-2.6-.8-2.75,1.24-3.46,2.31-.8,4.65-1.53,7.1-2.33Z"/>
    <path class="cls-2" d="m350.48,216.69c-.46,2.92-.46,2.94-2.59,3.38-1.54.32-3.08.58-4.8.89v-3.08c2.34-.38,4.69-.76,7.39-1.19Z"/>
    <path class="cls-2" d="m343.34,187.8c-.73-1.82-.28-2.79,1.18-3.5,2.42-1.17,4.78-2.48,7.16-3.74.16.14.33.28.49.41-.32.65-.47,1.55-1,1.9-2.48,1.67-5.06,3.2-7.84,4.93Z"/>
    <path class="cls-2" d="m352.41,169.86c-.11.33-.11.8-.33.97-2.94,2.31-5.91,4.58-9.02,6.97-.64-1.18-.8-2.04.19-2.7,2.89-1.92,5.8-3.8,8.7-5.7.15.15.31.3.46.46Z"/>
    <path class="cls-2" d="m363.51,261.47c.54-.18,1.15-.64,1.6-.51,5.5,1.62,10.98,3.33,16.35,5.44-5.95-1.38-11.9-2.77-17.85-4.15-.03-.26-.07-.52-.1-.78Z"/>
    <path class="cls-2" d="m179.78,249.56c-4.04,1.3-4.21,1.26-6.08-1.71,1.89-.4,3.64-.77,5.68-1.2.14,1.03.26,1.91.4,2.91Z"/>
    <path class="cls-2" d="m177.94,193.72v2.85c-2.18-1.08-4.13-2.04-6.18-3.05.34-1.41.79-2.22,2.31-1.48,1.18.57,2.41,1.05,3.86,1.67Z"/>
    <path class="cls-2" d="m342.11,166.02c.26-.62.34-1.46.79-1.84,2.59-2.15,5.28-4.19,8.19-6.47-.5,1.89-4.44,5.73-8.99,8.31Z"/>
    <path class="cls-2" d="m342.47,228.05c.07-1,.12-1.81.2-2.87,1.67-.15,3.21-.28,4.79-.42-.4,3.32-.68,3.51-4.99,3.28Z"/>
    <path class="cls-2" d="m148.88,286.09c5.42-3.49,10.62-5.8,12.26-5.44-1.4,1.36-9.31,4.87-12.26,5.44Z"/>
    <path class="cls-2" d="m154.86,273.17c-3.97,1.31-7.95,2.62-12.56,4.14,4.2-2.46,10.53-4.8,12.56-4.14Z"/>
    <path class="cls-2" d="m383.04,255.49c-.81-.04-1.62,0-2.42-.12-3.17-.46-6.33-.96-9.5-1.44-.02-.19-.05-.39-.07-.58.51-.15,1.06-.5,1.51-.41,3.51.7,7.01,1.49,10.51,2.25-.01.1-.03.21-.04.31Z"/>
    <path class="cls-2" d="m350.12,145.07c-2.65,2.83-5.31,5.66-8.28,8.83.42-2.24,3.61-5.57,8.28-8.83Z"/>
    <path class="cls-2" d="m140.69,266.4c2.38-1.11,4.69-2.3,7.25-2.44.05.21.11.43.16.64-2.47.6-4.94,1.2-7.41,1.8Z"/>
    <path class="cls-2" d="m342.18,235.3c-.12-1.23-.2-2-.29-2.91h2.13c-.6.95-1.11,1.75-1.84,2.91Z"/>
    <path class="cls-2" d="m178.01,187.04q-1.76-.98-.27-2.95c.11,1.2.18,1.98.27,2.95Z"/>
    <path class="cls-2" d="m180.02,253.98c.07.6.13,1.08.21,1.79q-1.02-.99-.21-1.79Z"/>
    <path class="cls-2" d="m204.52,90.49c-.07-.84-.14-1.67-.21-2.51.07,0,.14,0,.21,0,0,.83,0,1.66,0,2.5,0,0,0,.03,0,.03Z"/>
    <path class="cls-2" d="m312.61,359.9c-.49.35-.95.97-1.47,1.01-3.1.28-6.21.43-9.42.63.06-.35.01-.73.16-.83,2.37-1.62,2.51-3.91,2.23-6.5-.36-3.28-.44-6.6-.68-9.9-.07-1.01-.27-2.01-.9-3.05-1.03,3.5-2.02,7.01-3.1,10.49-.25.82-.11,1.95-1.31,2.25,0,.01.06.07.06.07,1.43-5.01,2.87-10.03,4.3-15.04.38-1.34.75-2.68-.23-4.64-.45,1.45-.76,2.38-1.04,3.33-2.09,7.2-4.17,14.41-6.26,21.61-.13.46-.18.96-.42,1.35-.31.52-.69,1.19-1.19,1.37-.98.35-1.26-.58-1.55-1.27-2.23-5.35-4.43-10.7-6.66-16.05-.34-.83-.76-1.62-1.14-2.43-.21.05-.41.09-.62.14.36,5.42.72,10.84,1.08,16.26-.1.01-.21.03-.31.04-.16-1.19-.37-2.38-.46-3.58-.39-5.21-.68-10.42-1.15-15.62-.12-1.33-.73-2.62-1.12-3.93-.2.04-.39.09-.59.13,0,.8-.04,1.6,0,2.4.33,5.12.69,10.24,1.04,15.36.06.85.19,1.7.26,2.55.23,2.9,1.16,5.36,4.69,6.53-3.85.26-7.14.48-10.73.72.29-.46.4-.82.63-.98,2.68-1.8,3.41-4.46,3.23-7.46-.45-7.4-.94-14.79-1.49-22.18-.06-.75-.58-1.54-1.07-2.17-.56-.71-1.32-1.25-2.45-2.28,4.56-.3,8.54-.57,13.17-.87-1.31,1.55-2.19,2.6-3.22,3.82,2.99,7.23,5.99,14.49,9.09,22,.39-.57.77-.88.75-1.16-.12-1.67.83-3.02,1.28-4.51.49-1.64.92-3.29,1.39-4.93.45-1.55.92-3.09,1.37-4.64.48-1.64.8-3.34,1.44-4.92.88-2.15.64-3.83-1.39-5.13-.22-.14-.34-.44-.62-.83,2-1.04,4.1-.46,6.07-.71,1.97-.25,3.97-.35,6.3-.55-.37.71-.49,1.26-.84,1.56-1.76,1.52-2,3.4-1.82,5.62.58,7.48,1.01,14.98,1.42,22.47.13,2.34,1.02,3.96,3.37,4.61l-.11-.11Z"/>
    <path class="cls-2" d="m237.7,328.11c.06-.08.11-.22.17-.22,5.5-.14,11.02-.36,16.42.87,4.62,1.05,7.7,4.08,9.17,8.53,1.96,5.89,1.71,11.83-.64,17.55-2.03,4.92-5.99,7.62-11.25,7.89-5.01.26-10.04.06-15.08.06.05-.3.01-.57.11-.62,2.31-1.25,2.69-3.24,2.68-5.71-.01-6.84.24-13.67.37-20.51q.09-4.56-1.95-7.84Zm7.48,2.32c-.09.32-.26.68-.27,1.04-.14,9.4-.26,18.81-.35,28.21,0,.43.41.87.63,1.3.2-.03.4-.06.6-.1,1.14-9.51.39-19.13.94-28.67,2.33-.45,4.36-.46,6.58.53-2.16-.1-4.07-.19-6.39-.3v28.39c5.23.5,8.55-1.56,10.34-6.64,1.8-5.14,1.95-10.46.78-15.73-1.44-6.47-6.11-9.28-12.87-8.04Z"/>
    <path class="cls-2" d="m335.9,346.12c.09-.98.67-2.09-1.11-2.86-.7,2.51-1.01,4.97-1.22,7.47-.25,2.89,1.24,4.83,3.74,6.82-2.26.42-4.06.79-5.86,1.08-1.86.3-3.74.54-5.84.63,4.75-4.78,5.91-10.85,6.77-17.42-1.21-.39-2.41-.77-3.89-1.25.33-1.21.69-2.52,1.13-4.11,1.2.6,2.26,1.13,3.42,1.7.8-2.11-1.75-1.84-2.09-3.33.95.41,1.77.76,2.82,1.21.63-3.25,1.18-6.32,1.84-9.37.41-1.89-1.52-2.2-2.3-3.72,3.57-.99,7.14-1.3,10.69-1.82.05.38.15.62.08.71-1.63,1.91-1.26,3.67.08,5.62,1.39,2.03,2.47,4.27,3.72,6.4.31.54.73,1.02,1.37,1.89.29-.98.46-1.55.63-2.12,0,0-.07.07-.07.07,1.23.03,1.29,0,2.69-1.07.82,1.37,1.63,2.73,2.51,4.19-1.43.55-2.78,1.07-4.44,1.71,2.43,4.31,4.56,8.43,7.05,12.32.7,1.1,2.43,1.54,3.67,2.26-1.09,1.03-7.11,2.23-11.95,2.26.87-1.07,1.62-1.99,2.63-3.23-1.69-2.84-3.42-5.76-5.3-8.92-2.16,1.65-3.05,4.08-4.49,6.44-1.67-1.65-3.24-3.2-4.9-4.83-.53.45-.97.82-1.41,1.19l.05.06Zm1.91-6.59c-1.05-.61-.48-1.51-.34-2.26.37-2.04.84-4.06,1.3-6.08.24-1.07.31-2.06-1.01-3.06-.79,3.73-1.56,7.28-2.26,10.85-.07.38.15.97.44,1.24,1.77,1.64,3.61,3.21,5.42,4.81.18-.08.36-.16.53-.24-.09-.66-.18-1.31-.27-1.97,1.78-.05,3.58-2.19,2.85-3.6-1.4-2.72-2.98-5.35-4.49-8.02-.21.04-.42.08-.64.12-.51,2.74-1.02,5.49-1.53,8.23Z"/>
    <path class="cls-2" d="m147.37,331.12c-.21.42-.25.69-.37.73-3.16,1.08-4.01,3.67-4.51,6.61-.37,2.15-.98,4.26-1.59,6.35-.46,1.58-.35,2.95.84,4.17.3.31.47.75.87,1.41-1.08-.16-1.84-.2-2.56-.38-4.33-1.06-8.62-2.31-12.99-3.21-8.61-1.77-12.13-9.56-12.06-15.56.05-3.77.95-7.34,2.72-10.67,3.8-7.14,11.8-10.24,19.44-7.48,1.69.61,3.29,1.46,4.89,2.3,2.09,1.1,4.16,2.24,7.28,1.91-2.33,2.7-4.27,4.95-6.53,7.56-.24-1.24-.39-1.94-.5-2.64-.95-6.39-7.75-9.75-13.36-6.39-1.72,1.03-3.31,2.64-4.37,4.35-2.86,4.64-4.08,9.82-3.66,15.27.34,4.31,2.47,7.58,6.54,9.26,2.26.93,4.66,1.5,7.41,2.37,1.2-4.8,2.32-9.33,3.5-14.05-3.4-.92-6.47-1.76-9.55-2.59.04-.16.08-.33.11-.49,3.15.76,6.3,1.52,9.42,2.28.56-1.45-.2-1.69-.94-1.88-2.3-.6-4.61-1.13-6.9-1.76-.81-.22-1.67-.49-2.35-.96-1.57-1.09-1.44-3.67.19-4.56.93-.51,1.91-.51,2.5.49.56.96.41,1.83-.84,2.21-.22.06-.4.25-1.06.71,6.38,1.61,12.32,3.11,18.43,4.65Z"/>
    <path class="cls-2" d="m386.94,349.09c-1.07-.34-2.05-.54-3.26-.18-2.97.89-6.03,1.49-9.76,2.38,3.56-3.21,3.09-6.65,2.25-10.12-1.6-6.64-3.26-13.27-4.82-19.92-.38-1.61-1.06-2.78-2.7-3.28-.42-.13-.79-.45-1.73-1,4.28-1.07,8.04-2,12.36-3.08-1.01,1.33-1.67,2.2-2.53,3.33,6.06,6.98,12.13,13.98,18.38,21.17.18-.59.35-.85.31-1.07-.35-1.83-1.65-3.26-1.4-5.45.22-1.94-.88-4.03-1.38-6.05-.48-1.93-.94-3.87-1.41-5.81-.07-.28-.18-.54-.26-.82-.79-2.89-1.58-5.77-5.05-6.93,3.14-.78,6.28-1.57,9.42-2.35-3.25,3.35-2.57,7.13-1.61,10.97,1.77,7.09,3.52,14.18,5.26,21.28.2.82.34,1.65.53,2.62-.71.27-1.3.52-1.9.73-1.62.58-2.77.12-3.92-1.23-4.61-5.44-9.34-10.77-14.03-16.13-.67-.77-1.39-1.51-2.16-2.35-.42,2.28,2.52,14.35,4.77,19.93-1.83-1.74-2.16-4.14-2.74-6.4-1.21-4.76-2.36-9.53-3.49-14.31-.3-1.28-.89-2.26-2.52-3.28,1.53,6.2,2.87,11.8,4.32,17.36.5,1.91,1.22,3.78,1.97,5.61.64,1.54,1.66,2.77,3.53,2.85,1.16.53,2.31,1.05,3.47,1.58l.08-.07Z"/>
    <path class="cls-2" d="m188.44,337.16c-.06,3.66-.69,7.19-2.19,10.54-2.88,6.47-8.44,9.67-15.06,8.73-6.25-.89-11.5-6.03-12.45-12.44-.77-5.2-.06-10.26,2.3-14.99,3.33-6.69,9.71-9.6,16.86-7.8,5.67,1.42,9.58,6.05,10.31,12.26.14,1.22.16,2.46.23,3.7Zm-5.37-1.87c-.18-2.33-.17-4.15-.49-5.9-1-5.45-6.98-8.19-11.64-5.37-1.85,1.12-3.06,2.82-3.94,4.75-2.26,4.92-3.14,10.14-3.11,15.5,0,1.76.41,3.62,1.08,5.25,2.26,5.5,9.28,6.56,12.97,1.92,1.32-1.66,2.36-3.72,2.94-5.77,1-3.54,1.55-7.21,2.19-10.36Z"/>
    <path class="cls-2" d="m209.09,358.03c.18.3.31.81.54.86,3.96.92,9.25.69,11.36-4.85.13-.34.36-.65.66-1.17,1.25,3.11,2.42,6.04,3.75,9.35-8.98-.79-17.85-1.57-26.73-2.35.04-.33,0-.63.09-.66,2.78-1.23,3.16-3.57,3.33-6.3.45-7.19,1.06-14.38,1.83-21.55.21-1.99-.04-3.51-1.54-4.81-.34-.29-.57-.71-1.27-1.6,4.22.34,7.9.64,11.59.93-.03.36.01.64-.07.69-2.76,1.59-3.44,4.11-3.64,7.12-.5,7.48-1.27,14.94-1.91,22.4-.07.81,0,1.63,0,2.79.95-.36,1.52-.58,2.08-.81,0-.01-.04-.06-.04-.06Z"/>
    <path class="cls-2" d="m442.17,284.19c-2.73,14.34-5.55,28.69-3.14,43.95-7.53-10.04-6.81-31.33,3.14-43.95Z"/>
    <path class="cls-2" d="m85.6,326.73c1.95-14.8-.83-29.14-4.01-43.69,3.62,2.6,7.83,13.54,8.52,21.24.72,8.14-.61,17.29-4.51,22.44Z"/>
    <path class="cls-2" d="m312.72,360.01c-1.38-1.47-1.62-3.24-1.72-5.19-.42-7.58-.96-15.15-1.57-22.72-.15-1.84.24-3.12,2.23-3.73-1.54,1.26-1.68,2.77-1.53,4.65.6,7.09,1.02,14.2,1.29,21.31.09,2.36.66,4.25,2.55,5.69.83.63,1.62,1.31,2.9,2.36-4.93,1.21-9.26.73-13.53,1.07,1.09-.55,2.3-.48,3.49-.55,1.33-.07,2.66-.12,3.98-.24,1.29-.11,2.57-.3,4.47-.52-1.17-.98-1.92-1.61-2.67-2.24,0,0,.11.11.11.11Z"/>
    <path class="cls-2" d="m199.37,361.67c9.42.8,18.84,1.6,28.2,2.39-.09.07-.3.41-.49.4-9.25-.71-18.5-1.46-27.75-2.2.02-.2.03-.39.05-.59Z"/>
    <path class="cls-2" d="m126.23,348.43c5.05,1.21,10.09,2.45,15.15,3.62,1.07.25,2.2.18,3.3.33.16.02.27.44.57,1-.63-.08-1.03-.1-1.4-.19-5.23-1.27-10.46-2.54-15.68-3.86-.67-.17-1.26-.63-1.89-.95l-.06.06Z"/>
    <path class="cls-2" d="m126.81,320.58c-2.31,5.11-3.56,10.48-3.89,16.08-.45-5.77.77-11.15,3.89-16.08Z"/>
    <path class="cls-2" d="m257.18,363.28c-1.27,1.54-3.19,1.32-4.85,1.64-1.65.32-3.4.21-5.1.23-3.21.03-6.41,0-9.63-.23,6.55-.6,13.21.48,19.63-1.57l-.06-.06Z"/>
    <path class="cls-2" d="m183.33,355.12c-3.64,3.92-10.07,4.89-14.88,2.35,7.12,1.32,9.01,1,14.88-2.35Z"/>
    <path class="cls-2" d="m141.81,347.66c1.11-4.27,2.2-8.55,3.38-12.8.12-.42.82-.67,1.5-1.19-2.71,4.6-2.76,9.67-4.88,13.99Z"/>
    <path class="cls-2" d="m365.78,355.41c-4.7.76-9.4,1.52-14.1,2.27-.03-.16-.06-.32-.09-.48,3.2-.54,6.4-1.05,9.58-1.65,1.18-.22,2.3-.73,3.47-1,.35-.08.78.22,1.17.34-.01.17-.02.35-.03.52Z"/>
    <path class="cls-2" d="m288.78,364.01c-1.76.96-7.2,1.54-12.89,1.02,4.28-.34,8.55-.67,12.89-1.02Z"/>
    <path class="cls-2" d="m340.59,359.26c-.26.07-.51.17-.78.21-4.26.71-8.53,1.42-12.87,1.83.31-.15.61-.39.93-.44,4.11-.69,8.22-1.36,12.33-2.03.13.14.25.28.38.42Z"/>
    <path class="cls-2" d="m129.39,317.99c3.72-2.72,7.28-2.35,10.24,1.02-3.21-2.56-6.62-2.85-10.24-1.02Z"/>
    <path class="cls-2" d="m190.35,342.52c-.13-3.86-.27-7.88-.39-11.5,1.27,3.57,1.46,7.59.39,11.5Z"/>
    <path class="cls-2" d="m386.86,349.16c.39.17.78.34,1.84.8-3.99,1.01-7.3,1.84-10.61,2.68-.04-.15-.09-.31-.13-.46,2.22-.59,4.46-1.11,6.65-1.79.83-.26,1.56-.85,2.33-1.29,0,0-.08.07-.08.07Z"/>
    <path class="cls-2" d="m400.93,340.75c.46,1.86.92,3.73,1.43,5.83-1.87.48-3.54.91-5.21,1.34-.04-.13-.08-.26-.11-.4,1.49-.47,2.99-.94,4.58-1.44-.38-1.84-.73-3.55-1.08-5.26.13-.02.26-.05.39-.07Z"/>
    <path class="cls-2" d="m266.19,352.57c.18-4.07.34-7.8.5-11.53.35,3.76.63,7.51-.5,11.53Z"/>
    <path class="cls-2" d="m353.63,339.74c.41.99.76,1.82,1.1,2.64-.11.06-.22.11-.34.17-.53-.95-1.06-1.9-1.76-3.15,2.02-.43,3.82-.81,5.62-1.19-1.16,1.54-2.88.8-4.62,1.53Z"/>
    <path class="cls-2" d="m395.45,313.83c.24,3.13.48,6.26.71,9.39-.07.02-.15.04-.22.06-.39-2.5-.85-4.99-1.13-7.51-.07-.6.45-1.26.7-1.89l-.07-.06Z"/>
    <path class="cls-2" d="m257.24,363.34c2.16-1.64,4.32-3.29,6.47-4.93,0,0-.06-.06-.06-.06-1.5,2.5-3.25,4.68-6.46,4.94,0,0,.05.06.05.06Z"/>
    <path class="cls-2" d="m210.28,338.02c.28-2.79.57-5.57.85-8.36.13.01.26.02.38.04-.2,2.47-.38,4.94-.62,7.41-.03.3-.43.56-.65.85,0,.01.04.06.04.06Z"/>
    <path class="cls-2" d="m335.85,346.06v7.27c-1.18-2.4-.36-4.8.05-7.21,0,0-.05-.06-.05-.06Z"/>
    <path class="cls-2" d="m209.11,351.11c.13-1.49.21-3,.42-4.48.08-.58.49-1.11.75-1.66l-.03-.04c-.13,1.4-.21,2.8-.43,4.18-.11.67-.49,1.31-.74,1.96l.03.04Z"/>
    <path class="cls-2" d="m381.43,319.47c-1.13-.66-2.13-1.42-1.93-2.95.64.98,1.29,1.97,1.93,2.95Z"/>
    <path class="cls-2" d="m209.08,351.07c0,2.31,0,4.62,0,6.95,0,.01.04.06.05.07,0-2.31,0-4.63-.02-6.97,0-.01-.04-.06-.04-.06Z"/>
    <path class="cls-2" d="m210.28,344.97c0-2.31,0-4.62,0-6.94,0-.01-.04-.06-.05-.07,0,2.31,0,4.63,0,6.96,0,.01.04.06.04.06Z"/>
    <path class="cls-2" d="m388.57,328.2c-.7-.77-1.39-1.53-2.09-2.3.12-.11.25-.23.37-.34.68.78,1.37,1.55,2.05,2.33-.11.1-.22.21-.33.31Z"/>
    <path class="cls-2" d="m296.28,362.46c-.24,1.21-.64,2.21-2.33,1.72.85-.58,1.63-1.11,2.4-1.64,0,0-.06-.07-.06-.07Z"/>
    <path class="cls-2" d="m147.41,322.16c.66-.74,1.32-1.49,1.97-2.23.12.1.23.2.35.3-.65.78-1.31,1.55-1.96,2.33-.12-.13-.24-.26-.36-.39Z"/>
    <path class="cls-2" d="m382.9,320.98c.67.76,1.35,1.53,2.02,2.29-.12.11-.23.21-.35.32-.7-.76-1.4-1.53-2.09-2.29.14-.11.28-.21.42-.32Z"/>
    <path class="cls-2" d="m126.29,348.37c-1.35.48-2.42,0-3.32-1.11,1.08.39,2.17.79,3.25,1.18,0,0,.06-.06.06-.06Z"/>
    <path class="cls-2" d="m297.39,358.43c-.38,1.34-.75,2.67-1.12,4.01,0,0,.06.07.07.08-.38-1.54.03-2.88,1.11-4.03,0,0-.05-.06-.05-.06Z"/>
    <path class="cls-2" d="m391.99,332.18c-.5-.58-1-1.17-1.51-1.75.09-.08.18-.16.27-.25.53.56,1.06,1.11,1.59,1.67-.12.11-.23.22-.35.33Z"/>
    <path class="cls-2" d="m187.12,350.83c.39-.95.78-1.9,1.17-2.86,0,1.13-.06,2.25-1.23,2.8l.06.05Z"/>
    <path class="cls-2" d="m263.71,358.41c.33-1.01.66-2.02,1-3.03l.57.26c-.55.9-1.09,1.81-1.63,2.71,0,0,.07.06.07.06Z"/>
    <path class="cls-2" d="m297.45,358.49c.25-1.47.5-2.94.75-4.42-.01-.01-.06-.07-.07-.08.69,1.62-.32,2.98-.74,4.43,0,0,.06.07.06.07Z"/>
    <path class="cls-2" d="m143.98,326.09c.53-.56,1.07-1.12,1.6-1.68.09.08.18.16.28.24-.49.58-.97,1.17-1.46,1.75-.14-.11-.28-.21-.42-.32Z"/>
    <path class="cls-2" d="m395.52,313.9c-.15-1.23.72-1.5,1.73-1.62-.6.52-1.2,1.03-1.8,1.55,0,0,.07.07.07.07Z"/>
    <path class="cls-2" d="m346.77,321.93c-.38.59-.77,1.17-1.15,1.76-.1-.05-.19-.1-.29-.15.33-.64.66-1.28.98-1.91.15.1.3.2.46.3Z"/>
    <path class="cls-2" d="m347.01,329.41c-.37-.66-.74-1.32-1.11-1.98.12-.06.24-.13.36-.19.37.66.74,1.32,1.1,1.98-.12.06-.24.13-.35.19Z"/>
    <path class="cls-2" d="m349.87,333.67c-.6-.67-1.19-1.35-1.79-2.02.18-.12.35-.24.53-.35.4.81.79,1.63,1.19,2.44,0,0,.08-.07.08-.07Z"/>
    <path class="cls-2" d="m355.08,333.38c.25.45.5.91.75,1.36l-.17.21c-.18-.18-.4-.34-.52-.55-.15-.28-.22-.61-.33-.91l.27-.1Z"/>
    <path class="cls-2" d="m355.93,344.37c.37.64.75,1.28,1.12,1.91-.12.07-.23.13-.35.2-.37-.64-.74-1.28-1.11-1.92.11-.06.23-.13.34-.19Z"/>
    <path class="cls-2" d="m358.99,350.52c-.37-.66-.74-1.31-1.11-1.97.12-.06.24-.13.36-.19.37.66.74,1.32,1.1,1.98-.12.06-.24.13-.35.19Z"/>
    <path class="cls-2" d="m224.7,354.25c.21.56.41,1.11.62,1.67-.11.04-.22.08-.32.11-.21-.55-.43-1.1-.64-1.66.12-.04.23-.08.35-.12Z"/>
    <path class="cls-2" d="m187.06,350.78c-.31.73-.61,1.46-.92,2.19-.26-1.04.22-1.67.98-2.13,0,0-.06-.06-.06-.06Z"/>
    <path class="cls-2" d="m224.77,416.76c1.71-3.56,1.63-6.89-.11-8.45,2.01-1.21,2.46-3.36,1.25-6.33,2.71-1.48,5.53-1.72,8.45-.8,1.78.57,3.3,1.53,3.56,3.63.25,1.98-.74,3.22-2.68,3.89.7.68,1.27,1.17,1.78,1.73,1.19,1.31,1.49,2.84.87,4.49-.65,1.72-2.1,2.4-3.79,2.54-1.13.09-2.27-.03-3.41-.13-1.89-.15-3.77-.36-5.91-.57Zm3.27-.94c2.56.82,4.67,1.17,6.47-.64.9-.9,1.14-3.3.33-4.28-1.55-1.86-3.73-1.88-6.21-1.77-.19,2.23-.38,4.36-.58,6.69Zm.67-7.85c1.67,0,3.17.2,4.58-.05,1.57-.28,2.41-1.92,2.13-3.5-.3-1.7-1.76-2.81-3.72-2.83-1.91-.02-2.48.45-2.73,2.42-.15,1.2-.16,2.42-.26,3.96Z"/>
    <path class="cls-2" d="m313.57,407.45c1.05,2.51-.08,5.3,2.59,7.19-1.59.28-2.95.52-4.73.83,1.29-2.52.22-4.64-.14-6.79-.07-.43-.96-.73-1.48-1.09,1.5-2.03,1.32-5.41-.62-8.13.37-.14.7-.34,1.05-.39.93-.13,1.87-.19,2.84-.29-.07,1.18-.21,2.24-.16,3.28.05,1.03.3,2.06.48,3.17,1.84.9,3.63.59,5.54-.19.14-2.36-.11-4.63-1.49-7.05,1.4-.18,2.64-.34,3.97-.51-.68,3.16.91,13.62,2.43,16-1.33.24-2.59.47-3.92.72.49-2.88.24-4.73-1.03-7.48-1.56.22-3.21.45-5.35.74Z"/>
    <path class="cls-2" d="m174.2,399.01c.52.69.86,1.15,1.2,1.59,1.16,1.51,1.28,3.15.43,4.8-.92,1.77-2.61,2.24-4.38,1.9-3.04-.59-6.04-1.4-9.5-2.23,2.04-1.19,2.07-2.88,2.49-4.39.39-1.43.98-2.86-.7-3.97,2.17-.61,3.03-2.64,2.58-6.05,3.04-.79,5.97-.59,8.72.99,1.55.89,2.61,2.18,2.44,4.16-.16,1.94-1.44,2.75-3.29,3.21Zm-8.38,6.05c1.58.35,2.82.77,4.09.87,1.96.16,3.14-.76,3.57-2.49.48-1.97-.09-3.3-1.97-4.11-1.17-.51-2.43-.79-3.85-1.24-.63,2.38-1.17,4.45-1.84,6.97Zm3.5-13.47c-.41,1.66-.86,3.43-1.28,5.12,2.43,1.44,4.76,1.57,6,.48,1.08-.94,1.37-2.56.72-3.87-.81-1.62-2.37-2.15-5.45-1.73Z"/>
    <path class="cls-2" d="m263.1,411.41c1.05-.49,1.46-.68,1.95-.92,0-1.19.06-2.42-.02-3.63-.07-1.1-.28-2.19-.44-3.44,2.51-1.4,5.23-1.87,8.11-1.15,1.72.43,3.24,1.2,3.55,3.21.3,1.98-.8,3.21-2.4,4.11-.49.28-.98.56-1.49.85.93,3.16,2.99,5.52,5.03,8.02-1.12.62-2.1,1.17-3.27,1.82-1.39-3.11-1.38-6.7-3.64-9.45-.91.21-1.82.42-3.02.71.18,2.27.36,4.48.56,6.9h-3.15c.13-1.25.35-2.6.4-3.95.05-1.27.07-2.64-2.16-3.06Zm4.52-1.47c2.28.16,3.72-.22,4.88-1.23,1.72-1.51,1.68-3.78-.09-5.17-1.42-1.11-3.09-1.05-4.79.16v6.24Z"/>
    <path class="cls-2" d="m207.68,399.23c2.69-.99,5.55-.92,8.35.3,1.55.68,2.81,1.83,2.78,3.64-.02,1.79-1.2,2.92-2.84,3.56-.61.24-1.2.49-1.89.77.54,3.17,1.97,5.81,3.81,8.58-1.22.44-2.31.84-3.54,1.3-.57-3.34-1.12-6.54-1.7-9.89-1.31.07-2.22.12-3.48.18-.18,2.36-.34,4.57-.53,7.04-.96-.11-2.14-.25-3.33-.38.43-1.46.92-2.71,1.15-4.01.32-1.85.19-1.98-1.13-3.25,3.08-1.88,1.9-4.98,2.35-7.84Zm1.69,7.19c1.01.06,1.75.21,2.48.13,2.83-.3,4.53-1.83,4.38-3.86-.16-2.1-2.17-3.4-5.09-3.26-.17,0-.33.16-.77.4-.29,1.93-.61,4.05-1,6.59Z"/>
    <path class="cls-2" d="m193.01,406.01c-1.13.8-1.89,1.33-2.79,1.96-.73-1.15-1.41-2.24-2.11-3.34-2.11,2.01-2.36,2.71-2.08,6.17-1.4-.27-2.73-.53-4.05-.79,1.44-1.74,2.8-3.38,4.16-5.02.94-1.14.88-2.18-.39-2.94.48-1.44,1.24-1.34,2.11-.6,2.59-2.88,3.11-3.91,3.04-6.22,1.4.24,2.76.48,4.34.75-1.54,2.32-.18,4.35-.06,6.5.79.57,2.85-.34,2.26,1.86-.51.16-1.03.33-1.92.61.55,2.64,1.09,5.25,1.67,8-1.14-.2-2.5-.45-3.87-.69.17-1.01.49-1.94.44-2.85-.05-1-.42-1.99-.76-3.4Zm.01-1.6c-.45-1.98-.88-3.84-1.44-6.26-1.17,1.86-2.01,3.18-2.92,4.61.61,1.09,1.18,2.11,1.79,3.22.91-.56,1.54-.94,2.56-1.56Z"/>
    <path class="cls-2" d="m328.14,402.01c.04-4.52,3-7.41,7.31-7.19,2.31.12,3.89,1.39,5.04,3.23,1.45,2.32,2,4.9,1.71,7.61-.29,2.71-2.2,4.9-4.65,5.52-2.87.72-5.84-.32-7.53-2.74-1.34-1.92-1.88-4.11-1.88-6.44Zm2.51-1.24c.18,3.21.63,5.71,2.06,7.93.92,1.44,2.31,1.86,3.94,1.66,1.38-.17,2.35-1.02,2.63-2.27.86-3.86.19-7.53-1.93-10.86-.83-1.29-2.23-1.7-3.77-1.32-1.41.35-2.31,1.3-2.66,2.68-.23.91-.24,1.87-.28,2.18Z"/>
    <path class="cls-2" d="m355.05,406.89c-1.69.44-2.95.77-4.43,1.15.35-2.68-.33-4.95-1.46-7.09-.12-.22-.8-.15-1.2-.21,1.98-3.06-.13-5.55-1.21-8.58,2.39-.55,4.9-1.28,7.46-1.67,2.54-.38,4.56,1.02,5.07,3.13.49,2.07-.54,3.8-2.96,4.86-.69.3-1.42.51-2.14.76-.69.24-1.39.48-2.26.79.84,2.34.39,4.98,3.13,6.86Zm-5.08-14.14c.57,2.13,1.08,4.01,1.57,5.87,2.26-.19,4.28-.51,5.07-2.73.44-1.22.05-2.53-1.04-3.32-1.75-1.27-3.54-.82-5.6.18Z"/>
    <path class="cls-2" d="m292.37,416.53c.46-1.19.84-2.15,1.25-3.21.92.82,1.64,1.75,2.59,2.24.88.45,2.01.6,3.02.59,2.13,0,3.6-1.19,3.73-2.79.12-1.42-1.02-2.88-2.9-3.38-1.64-.44-3.37-.54-5.01-.98-2.1-.57-2.96-1.81-3.03-3.94-.08-2.38,1.26-4.17,3.82-4.5,2.04-.26,4.15-.05,6.65-.05-.32,1.19-.58,2.12-.91,3.33-.8-.75-1.35-1.38-2.01-1.87-1.12-.85-2.34-1.14-3.72-.5-1.16.54-1.88,1.37-1.83,2.62.04,1.13.7,1.97,1.85,2.26,1.46.37,2.94.7,4.42,1.01,3.29.7,4.72,2.35,4.48,5.18-.23,2.56-2.33,4.41-5.37,4.43-2.25.01-4.51-.27-7.03-.44Z"/>
    <path class="cls-2" d="m257.92,418.15h-12.6c1.44-2.54.98-5.08.81-7.71-.47-.16-.97-.34-1.49-.52.06-.15.09-.38.19-.42,1.06-.4,1.76-.96,1.59-2.28-.21-1.63-.27-3.28-.41-5h11.57c-.61,1.16-1.07,2.03-1.68,3.19-1.82-2.59-4.22-2.65-6.98-2.14v5.38q2.75.71,4.78-.77c.06.62.15,1.14.16,1.66.01.56-.04,1.12-.09,2.07-1.51-1.6-3.07-1.76-4.95-1.23v6.72c2.67.57,5.26.8,7.18-2.2.62,1.06,1.13,1.94,1.9,3.25Z"/>
    <path class="cls-2" d="m277.72,301.47c-4.48-.88-8.97-1.61-13.38-2.66-3.35-.8-5.51-2.91-6.57-6.41-2.01-6.67-3.4-13.45-4.34-20.32-1.38-10.07-2.8-20.14-3.78-30.26-.78-8.03-1.17-16.13-1.28-24.2-.37-27.48-.47-54.96-.83-82.44-.15-11.5-.71-23-1.06-34.5-.06-1.8-.14-3.62,0-5.41.18-2.3,1.16-3.49,3.43-3.94,1.85-.37,3.81-.68,5.64-.45,5.08.65,10.13,1.6,15.19,2.44.37.06.72.21,1.23.36.32.81.64,1.69,1.02,2.55,1.33,2.96,3.33,5.3,6.4,6.58,4.28,1.78,8.53.2,10.59-3.94.37-.75.68-1.54,1.1-2.53,5.74,1,11.46,1.89,17.13,3.01,4.37.87,6.96,3.75,7.8,8.08,1.03,5.31,1.99,10.64,2.86,15.98,2.3,14.1,2.86,28.35,3.52,42.59.79,17.39,1.55,34.78.95,52.18-.33,9.59-1.13,19.16-1.99,28.72-.83,9.27-1.89,18.53-3.09,27.76-.94,7.24-1.75,14.5-3.99,21.53-1.23,3.87-3.52,6.11-7.42,6.36-3.58.23-7.2-.04-10.8-.08-1.11-.01-1.53-.87-2.21-1.53-1.48-1.44-2.96-3.03-4.75-3.96-3.81-1.97-7.51-.88-10.06,2.55-.34.45-.63.94-1.29,1.92Zm-.13-145.16c.97-1.93,1.81-3.62,2.67-5.29,1.17-2.28,1.55-4.69,1.04-7.2-.42-2.08-2.02-3.55-3.82-3.72-1.93-.18-3.45.84-4.36,2.98-.22.52-.38,1.07-.49,1.63-.71,3.6-.21,7.06,1.7,10.15,1.07,1.73,1.03,3.15.37,5-1.41,3.95-2.27,8.06-2.07,12.29.2,4.19,1.48,8.04,4.24,11.26,3.97,4.62,9.6,4.17,12.81-.97.35-.56.62-1.18.95-1.75.3-.52.62-1.02.84-1.38.95,2.16,1.59,4.4,2.82,6.25,2.81,4.21,7.43,4.22,10.35.14.98-1.37,1.61-3,2.33-4.54.34-.73.54-1.53.83-2.35.75.47,1.29.82,2.28,1.45-.37-1-.44-1.5-.71-1.85-1.01-1.3-1.03-2.66-.77-4.25.78-4.82.65-9.66,0-14.49-.54-3.99-1.64-7.81-4.01-11.15-1.69-2.37-3.76-4.3-6.63-5.15-2.24-.66-4.33-.39-6.14,1.18-3.8,3.29-3.21,9.72,1.17,12.17.82.46,1.83.56,2.76.82.07-.19.14-.38.21-.57-.54-.29-1.08-.59-1.62-.88-1.74-.95-3.01-2.3-3.57-4.24-.56-1.99-.13-3.8,1.21-5.31,1.4-1.57,3.31-1.51,5.02-.85,1.47.56,2.86,1.51,4.05,2.56,2.4,2.13,3.84,4.92,4.77,7.97,1.75,5.73,1.92,11.59,1.48,17.5-.03.4-.32.77-.55,1.31-.57-.43-.96-.68-1.3-1-4.24-3.89-9.14-6.77-14.22-9.4-3.12-1.61-6.21-3.28-9.24-5.07-1.52-.9-2.86-2.1-4.41-3.26Zm-1.2,54.27c.83.13,1.76.12,2.57.43,2.12.83,4.17,1.83,6.27,2.69,1.16.48,2.38.82,3.93,1.33v-5.65c.89.57,1.46,1.15,2.13,1.32.86.21,1.84.23,2.71.06.39-.08.91-.81.91-1.25,0-.42-.52-1.04-.95-1.22-.87-.36-1.83-.47-2.75-.69-4.64-1.14-9.08-2.79-13.01-5.58-.95-.68-1.73-1.6-2.58-2.42.12-.23.25-.45.37-.68,4.08-.68,7.15,2.39,10.74,3.51.87-2.13-.19-3.17-1.74-4.06-2.3-1.33-4.6-2.67-6.81-4.14-1.25-.83-2.3-1.93-2.36-3.57,1.98-.83,2.03-.85,3.6-.32,2.84.97,5.26,2.64,7.41,4.69,2.85,2.72,3.04,3.67,1.5,7.05,1.11.25,1.71-.53,1.86-1.28.27-1.36.53-2.84.25-4.16-1-4.67-7.83-9.46-12.59-8.98-1.35.14-2.67.5-3.27,1.92-.57,1.34.15,2.44.97,3.37.92,1.04,2.01,1.93,3.21,3.06-.66.07-1.02.13-1.38.14-1.36.05-2.42.59-2.85,1.93-.41,1.26.31,2.2,1.1,3.05.45.49.92,1,1.49,1.32,2.57,1.42,5.16,2.79,7.77,4.14.9.47,1.85.84,2.71,1.22,0,.65.06,1.04-.01,1.4-.38,1.95-.92,2.22-2.73,1.37-.6-.28-1.14-.69-1.75-.95-1.48-.62-2.94-1.33-4.48-1.75-1.71-.46-3.08.16-3.7,1.35-.76,1.44-.1,2.63.85,3.6,1.1,1.12,2.37,2.08,3.63,3.16-3.72.34-5.06,1.66-4.82,4.63.45,5.5,7.17,10.5,12.58,9.35,2.54-.54,3.58-2.25,3.03-4.96-1.55,3.28-2.67,3.83-6.09,2.26-2.22-1.02-4.24-2.49-6.27-3.87-.67-.46-1.23-1.21-1.62-1.95-.64-1.21-.15-2.31,1.21-2.6.89-.19,1.89-.13,2.8.02,4.29.75,8.07,2.77,11.72,5.01,3.47,2.13,6.82,4.45,10.28,6.72,1.09-1.29.71-2.52-.33-3.51-.95-.9-2.06-1.7-3.22-2.32-5.45-2.9-10.95-5.71-16.4-8.59-1.59-.84-3.15-1.76-4.65-2.76-.84-.55-1.81-1.18-1.23-2.87Zm11.93,35.95c-.49,1.21-.92,2.25-1.42,3.48-1.71-.91-3-1.74-4.39-2.3-1.47-.59-3.03-1.06-4.59-1.34-1.2-.22-2.43.34-2.73,1.56-.22.89-.07,2.17.45,2.89,2.01,2.75,4.96,4.13,8.15,5.07-2.32-2.29-6.16-2.75-7.8-6.57,5.2-.47,8.65,3.46,13.36,4.13v-5.59c.86.58,1.34,1.09,1.92,1.25.88.24,1.86.4,2.74.25.47-.08.99-.83,1.13-1.38.07-.29-.54-.92-.98-1.14-.57-.3-1.27-.34-1.91-.5-4.65-1.11-9.06-2.8-13.13-5.32-1.49-.93-2.7-2.11-3.26-3.81-.35-1.07-.3-2.06.77-2.77,1.91-1.27,4.68-.31,5.44,1.86.31.9.48,1.94,1.06,2.62,1.2,1.42,2.51,2.83,4.03,3.88.66.46,2.21.39,2.86-.1.64-.48.72-1.79.93-2.75.07-.32-.18-.72-.31-1.07-1.56-4.08-7.45-7.84-11.84-7.56-2.77.18-4.53,2.25-4.19,5,.21,1.76.93,3.32,2.35,4.42,1.12.87,2.31,1.68,3.58,2.3,2.37,1.17,4.82,2.19,7.78,3.51Z"/>
    <path class="cls-2" d="m291.2,91.98c1.36.15,2.73.24,4.08.45,4.78.72,9.59,1.35,14.34,2.26,6.26,1.21,10.02,5.26,11.45,11.33,1.2,5.08,2.03,10.24,2.96,15.37,2.87,15.76,3.52,31.7,4.1,47.66.28,7.6.6,15.2.82,22.79.4,13.69.06,27.38-1.35,41-1.23,11.8-2.75,23.58-4.19,35.36-.31,2.53-.82,5.04-1.56,7.52.23-2.15.41-4.3.69-6.44,3.45-26.62,5.36-53.32,4.32-80.17-.62-15.86-1.29-31.72-2.27-47.55-.69-11.09-2.48-22.08-4.67-32.98-1.76-8.77-5.31-12.02-14.25-13.44-3.94-.62-7.88-1.2-11.82-1.83-.91-.15-1.8-.41-2.7-.62.02-.24.04-.47.06-.71Z"/>
    <path class="cls-2" d="m283.17,84.17c-3.46.48-5.78,2-6.2,5.4-.41,3.36.88,6.05,3.59,8.3,2.64-2.44,2.88-5.86,4.72-8.53-.54,3.16-1.07,6.31-1.68,9.85,1.41-.21,2.73-.41,4.03-.61-1.6,2.3-4.14,3.03-7.08,2.02-4.94-1.7-7.81-8.09-5.79-12.89,1.43-3.39,4.57-4.82,8.4-3.55Z"/>
    <path class="cls-2" d="m269.86,89.33h-1.28c0-.05,0-.11,0-.16h1.33c-.02.05-.03.11-.05.16Z"/>
    <path class="cls-2" d="m391.4,152.67c10.98,17.8,17.98,36.35,21.26,56.46-3.13,1.38-6.18,1.49-9.52,1.27-.6-2.78-1.18-5.53-1.79-8.28-2.98-13.43-7.88-26.13-14.63-38.09-1.05-1.85-1.09-3.26.12-4.9,1.45-1.97,2.82-3.99,4.56-6.46Z"/>
    <path class="cls-2" d="m394.91,149.54c.66-.6,1.18-1.13,1.77-1.59.58-.45,1.23-.82,2.02-1.33,11.5,18.14,19.08,37.63,22.9,58.93-1.31.68-2.61,1.37-4.35,2.28-2.02-10.49-4.57-20.54-8.31-30.25-3.76-9.77-8.45-19.07-14.04-28.04Z"/>
    <path class="cls-2" d="m127.21,159.02c1.67,3.46,3.12,6.53,4.64,9.57.58,1.16-.05,2-.49,2.92-4.74,9.87-8.38,20.13-10.71,30.83-.77,3.52-1.43,7.07-1.98,10.62-.2,1.28-.59,2.17-1.87,2.48-2.64.66-5.28,1.28-7.94,1.93-1.81-9.37,9.82-46.44,18.34-58.35Z"/>
    <path class="cls-2" d="m103.6,216.99c-1.68-.28-3.04-.51-4.66-.79,2.51-23.04,9.59-44.26,21.16-64.26.76.59,1.38,1.01,1.92,1.51.55.51,1.03,1.09,1.67,1.79-5.31,9.48-9.78,19.3-13.15,29.61-3.37,10.32-5.62,20.89-6.94,32.14Z"/>
    <path class="cls-2" d="m341.25,342.5c-1.18-1.04-2.35-2.07-3.53-3.11,1.18,1.04,2.35,2.07,3.53,3.11Z"/>
    <path class="cls-2" d="m168.55,330.79c-1.59,6.11-2.93,12.25-1.75,18.61-2.19-6.45-.46-12.55,1.75-18.61Z"/>
    <path class="cls-2" d="m171.54,326.59c2.74-2.27,5.13-2.27,7.97-.05-2.66-1.31-5.32-1.49-7.97.05Z"/>
    <path class="cls-2" d="m292.12,170.81c-.4,1.01-.83,2.01-1.21,3.03-.69,1.86-1.19,3.82-2.07,5.59-1.85,3.68-5.29,4.63-8.85,2.52-3.95-2.33-5.67-6.1-5.94-10.45-.27-4.39.83-8.61,2.53-12.99,1.18.99,2.1,1.92,3.16,2.63,3.55,2.37,7.1,4.74,10.74,6.97,4.21,2.57,8.52,4.98,12.77,7.49,1.05.62,2.04,1.35,3.09,2.06-.05,2.26-.87,4.16-2.07,5.88-1.58,2.27-3.84,2.79-6.22,1.35-2.93-1.77-4.75-4.33-4.83-7.88-.03-1.23.13-2.47.12-3.7,0-.79-.17-1.57-.26-2.36-.31-.04-.62-.09-.94-.13Z"/>
    <path class="cls-2" d="m276.79,155.04c-2.34-2.93-3.09-5.68-2.81-8.7.07-.72.36-1.48.75-2.09.65-1.03,1.67-1.54,2.91-1.33,1.27.21,2.01,1.1,2.21,2.29.13.81.12,1.73-.15,2.49-.81,2.29-1.78,4.52-2.91,7.35Z"/>
    <path class="cls-2" d="m290.08,241.59c-4.09.14-6.64-2.33-6.96-6.4,2.8,1.55,5.43,3.08,6.96,6.4Z"/>
  </g>
</svg>